<?xml version="1.0" encoding="UTF-8" standalone="no"?>
<svg
   xmlns:dc="http://purl.org/dc/elements/1.1/"
   xmlns:cc="http://creativecommons.org/ns#"
   xmlns:rdf="http://www.w3.org/1999/02/22-rdf-syntax-ns#"
   xmlns:svg="http://www.w3.org/2000/svg"
   xmlns="http://www.w3.org/2000/svg"
   xmlns:sodipodi="http://sodipodi.sourceforge.net/DTD/sodipodi-0.dtd"
   xmlns:inkscape="http://www.inkscape.org/namespaces/inkscape"
   width="300"
   height="300"
   viewBox="0 0 300 300"
   version="1.1"
   id="svg10"
   sodipodi:docname="logo.svg"
   inkscape:export-filename="/home/hackan/Workspace/blake2signer/logo.png"
   inkscape:export-xdpi="171.36"
   inkscape:export-ydpi="171.36"
   inkscape:version="1.0.1 (3bc2e813f5, 2020-09-07)">
  <metadata
     id="metadata16">
    <rdf:RDF>
      <cc:Work
         rdf:about="">
        <dc:format>image/svg+xml</dc:format>
        <dc:type
           rdf:resource="http://purl.org/dc/dcmitype/StillImage" />
        <dc:title></dc:title>
      </cc:Work>
    </rdf:RDF>
  </metadata>
  <defs
     id="defs14" />
  <sodipodi:namedview
     pagecolor="#ffffff"
     bordercolor="#666666"
     borderopacity="1"
     objecttolerance="10"
     gridtolerance="10"
     guidetolerance="10"
     inkscape:pageopacity="0"
     inkscape:pageshadow="2"
     inkscape:window-width="1920"
     inkscape:window-height="1043"
     id="namedview12"
     showgrid="false"
     inkscape:zoom="1.0468096"
     inkscape:cx="457.5998"
     inkscape:cy="325.18439"
     inkscape:window-x="0"
     inkscape:window-y="0"
     inkscape:window-maximized="1"
     inkscape:current-layer="layer1"
     inkscape:document-rotation="0"
     showguides="true"
     inkscape:guide-bbox="true">
    <sodipodi:guide
       position="-826.16881,434.73037"
       orientation="0,-1"
       id="guide1189" />
    <sodipodi:guide
       position="-1925.555,-639.30206"
       orientation="0,-1"
       id="guide1191" />
  </sodipodi:namedview>
  <g
     inkscape:groupmode="layer"
     id="layer1"
     inkscape:label="Layer 1"
     transform="translate(-234.1291,-176.29747)">
    <g
       id="g1168"
       style="fill:#1a1a1a"
       transform="matrix(0.33678249,0,0,0.33678249,172.36778,116.92357)">
      <path
         id="path4"
         style="fill:#1a1a1a;stroke-width:5.62572"
         d="m 820.1142,514.60278 c -1.62485,1.62485 -3.89126,2.20371 -6.79761,1.73466 -2.42196,-0.39091 -5.48506,-1.83075 -7.73537,-4.08106 -10.50084,-9.3122 -20.20771,-18.12705 -29.4416,-26.7209 l -19.16784,17.86964 C 585.42427,674.19303 428.64814,856.51601 269.42851,1038.5317 c -2.81283,2.2503 -6.18711,3.3754 -9.56245,3.3754 -3.37541,0 -6.75059,-2.2501 -8.43832,-5.063 -14.06429,-20.2527 -29.81636,-65.25802 -1.68772,-104.63803 0,0 -4.8e-4,-0.56208 0.5621,-0.56217 -2e-5,-0.56247 0.56215,-0.56303 0.56214,-1.1256 l 0.56346,-0.56347 C 377.8685,773.81238 514.56389,630.49526 653.26878,485.6874 l 61.11915,-61.8097 c -9.10016,-9.75336 -18.34154,-19.93378 -28.07159,-30.88619 -4.50059,-4.50062 -5.51601,-10.79717 -2.26632,-14.04685 l 23.15361,-23.15361 c 1.62484,-1.62485 3.88986,-2.20232 6.79622,-1.73325 2.42196,0.39091 5.48508,1.82799 7.73536,4.0783 7.32035,8.12208 14.58836,16.06426 21.87473,23.89385 22.98644,-22.98655 45.97299,-45.97299 68.95952,-68.95948 l 63.15347,-63.15348 67.88916,-67.88918 c 3.15756,-3.15755 6.8145,-5.02472 10.97121,-5.60439 2.57979,-0.35976 5.05231,0.0479 7.13146,1.26445 25.13468,15.87079 45.75174,35.91741 60.29914,59.84919 0.5963,0.59621 1.0951,1.88571 0.9985,2.57848 -0.097,0.69288 0.4998,1.28781 0.4033,1.98042 l -0.388,2.77181 c -0.097,0.69277 -0.2893,2.07914 -1.0786,2.86847 -0.096,0.69274 -0.1939,1.38449 -0.9833,2.17379 -0.8862,1.48232 -0.9827,2.17587 -1.7721,2.96522 -0.7893,0.78934 -1.5776,1.57782 -2.3671,2.36714 l -28.41959,28.41961 -69.46769,69.46772 -63.15218,63.15215 -39.05931,39.05931 c 7.82982,7.28437 15.88036,14.61821 24.27227,22.0598 4.50057,4.5006 5.51732,10.79847 2.26771,14.04823 z m -10.14534,-21.92307 11.37449,-11.37448 c -3.13048,-2.71834 -6.2332,-5.45379 -9.3236,-8.19664 -0.776,-0.68862 -1.55091,-1.37738 -2.32433,-2.06746 -3.07094,-2.7406 -6.12922,-5.48925 -9.15785,-8.25187 -22.32139,-20.36087 -43.43235,-41.30465 -62.81099,-62.51266 -1.55917,-1.70637 -3.1057,-3.41435 -4.64313,-5.12377 -0.21665,-0.24111 -0.43289,-0.48252 -0.64912,-0.72365 -1.36595,-1.52224 -2.7224,-3.04546 -4.07001,-4.56997 -0.65887,-0.74625 -1.3123,-1.49332 -1.96666,-2.24008 -0.9711,-1.10702 -1.94213,-2.21477 -2.903,-3.32285 -1.71478,-1.97939 -3.41974,-3.959 -5.10167,-5.94135 l -11.37447,11.37447 c 3.03926,3.4324 6.08007,6.82633 9.12333,10.20333 0.37912,0.4204 0.75879,0.84266 1.138,1.2623 3.10189,3.43402 6.21033,6.84326 9.32912,10.22681 0.0153,0.0167 0.0301,0.0344 0.0455,0.0512 19.76617,21.4419 39.98704,41.9385 62.11767,62.28341 0.006,0.006 0.0128,0.01 0.018,0.0152 0.30024,0.27605 0.60499,0.55267 0.90599,0.82863 1.75608,1.61026 3.5253,3.21921 5.30606,4.82822 0.65356,0.59035 1.31101,1.1816 1.96802,1.77189 1.64764,1.48058 3.30701,2.96116 4.97737,4.44153 0.44528,0.3945 0.88859,0.78901 1.33549,1.18358 2.20972,1.95109 4.43346,3.9021 6.68574,5.85433 z M 266.87078,1014.595 c 149.9988,-179.83819 307.642,-349.98164 469.86006,-518.42119 l -7.31276,-7.31276 C 593.5378,621.08652 467.95048,758.24386 344.56003,901.57248 c -58.83934,68.7805 -70.70055,83.10799 -81.88075,54.82295 -9.56368,21.37766 -1.4342,45.26037 4.1915,58.19957 z M 820.58655,425.07089 809.38056,389.47525 773.78353,378.26788 784.9895,413.8663 Z m 27.7899,-27.78987 -11.20468,-35.59698 -35.59838,-11.20603 11.20456,35.59707 z m 27.78978,-27.78979 -11.20458,-35.59706 -35.5985,-11.20594 11.20737,35.59704 z m 27.79125,-27.79127 -11.20466,-35.59699 -35.59833,-11.20604 11.20449,35.59709 z m 27.78988,-27.78987 -11.20467,-35.59697 -35.59842,-11.20603 11.20738,35.59704 z m 27.79117,-27.79118 -11.20468,-35.59699 -35.59831,-11.20604 11.20589,35.59846 z m 27.78987,-27.78987 -11.20467,-35.59699 -35.59832,-11.20604 11.20589,35.59847 z"
         sodipodi:nodetypes="ssccccsccccccccsssccscssccccsccscccccccsccscsssccccccccsccccscssscccccccccccccccccccccccccccccccccccccccccc" />
      <path
         fill-rule="evenodd"
         clip-rule="evenodd"
         fill="#000000"
         d="m 781.85517,1009.802 -2.99672,-1.9164 c -1.24865,-0.6388 -2.4973,-1.2776 -3.99566,-1.9163 -2.99684,-1.4906 -6.49309,-3.194 -10.48875,-4.4716 -7.99133,-3.1939 -18.47997,-5.962 -30.96661,-7.6654 -12.48641,-1.7035 -26.97082,-1.9164 -42.45407,-0.213 -7.74173,0.8517 -15.73307,2.5552 -23.97422,4.6845 -1.99777,0.6388 -3.99566,1.2776 -6.24315,1.9163 -1.99789,0.8518 -3.99577,1.7035 -6.24326,2.5552 -1.99789,0.8517 -3.99578,2.1293 -5.99355,2.981 -1.99789,1.0647 -3.99578,2.5552 -5.99356,4.0457 -6.74268,5.5362 -11.73729,11.2853 -16.98172,17.0344 -5.24431,5.7491 -10.48863,11.4982 -16.23248,16.3956 -2.74701,2.3422 -5.74373,4.4715 -7.99133,5.3232 -0.24971,-0.4258 -0.74924,-1.0646 -1.24865,-1.7034 -0.24971,-0.4259 -0.74913,-1.2776 -0.99895,-1.9164 l -1.49836,-2.5551 c -1.99789,-4.0457 -4.7449,-8.0914 -7.49191,-11.7112 -5.74379,-7.4525 -12.98599,-14.2663 -21.47683,-20.2283 -4.49513,-2.981 -9.24001,-5.7491 -14.73408,-8.0914 -5.49407,-2.3422 -11.73734,-4.2585 -19.47897,-4.8973 -3.9957,-0.213 -8.24112,-0.213 -12.73626,0.8517 -4.49516,1.0646 -8.99029,2.981 -12.48652,5.7491 -1.74812,1.2776 -3.2465,2.7681 -4.49515,4.0456 l -2.24758,2.3423 -4.49513,4.6844 c -5.74382,6.175 -11.48762,12.137 -17.23141,16.8215 -0.74919,0.6388 -1.49837,1.2776 -2.24758,1.7034 -0.24972,-0.2129 -0.24972,-0.4258 -0.49945,-0.6388 l -0.99894,-0.8517 -3.74594,-3.1939 -1.99785,-1.4905 c -0.7492,-0.4259 -1.24866,-0.8518 -1.99785,-1.2776 l -3.99567,-2.3422 c -2.74705,-1.4905 -5.74382,-2.7681 -8.49085,-4.0457 -11.98706,-4.4715 -24.7233,-5.5362 -35.21198,-5.1103 -10.73842,0.4258 -20.47791,1.9163 -29.4682,3.8327 -17.73085,3.6198 -32.96441,8.3043 -46.69958,12.3499 -13.73519,4.0457 -26.22171,7.2397 -37.20984,9.156 -10.98814,2.1293 -20.72763,2.7681 -28.96873,2.5552 -1.99785,0 -25.97197,-5.5362 -27.72009,-5.7491 0,0 3.44046,-5.4126 0,0 0,1.0646 0.24973,2.1293 0.49946,2.981 0.44838,0.9431 0.45941,0.9521 0.99892,1.7034 1.49839,2.5552 4.49516,4.2586 7.74167,4.8974 3.74595,1.9164 8.99028,4.4715 15.733,6.175 8.9903,2.5551 20.72763,4.2586 33.71362,4.0456 12.98597,0 27.72006,-1.4905 42.7039,-3.8327 14.98383,-2.1293 30.96656,-5.3232 46.69959,-7.2396 15.73301,-2.1293 31.46602,-2.5552 41.20551,1.0646 1.24866,0.6388 2.49732,0.8518 3.49625,1.4906 0.9989,0.6387 2.4973,1.2775 2.99673,1.9163 0.24976,0.213 0.74922,0.6388 1.24866,0.8517 l 0.24975,0.213 c 0,0 0.24972,0.4258 0.49946,0.4258 l 1.24864,1.0647 2.24757,2.1293 0.24975,0.2129 0.24972,0.2129 c -1.24865,-1.4905 -0.24972,-0.2129 -0.49947,-0.4258 l 1.24865,1.2776 1.24866,1.2775 1.49838,1.2776 1.74813,1.2776 c 0.74918,0.4259 1.49837,0.8517 1.99783,1.2776 1.24867,0.8517 2.99677,1.4905 4.74489,2.1293 3.49621,1.2775 7.74164,1.7034 11.23786,1.4905 7.24219,-0.4259 11.98707,-2.5552 15.48328,-4.2586 6.99247,-3.6198 10.73842,-7.2396 14.48437,-10.8594 7.24219,-7.0267 12.48653,-14.0534 17.73087,-20.8671 l 3.74596,-5.1104 1.99783,-2.5551 0.24974,-0.4259 c 0,-0.2129 0,-0.2129 0.24972,-0.2129 0.24974,-0.213 0.99893,-0.213 1.99784,-0.213 2.24758,0 5.49407,0.6389 8.9903,1.9164 3.2465,1.2776 6.74274,2.981 10.23896,4.8974 6.49298,4.0457 12.48652,8.9431 17.48113,14.6922 2.49729,2.768 4.49515,5.5361 6.49299,8.5172 l 1.49837,2.5551 c 0.74919,1.0647 1.24865,2.1293 2.24759,3.4069 0.99892,1.0646 1.74811,2.1293 2.99676,3.4069 0.99891,1.0646 2.49731,2.3422 3.99568,3.4068 1.74807,1.0647 3.74596,2.3423 6.49297,2.981 1.24865,0.4259 2.49731,0.6388 3.99567,0.8518 1.49847,0.2129 2.74712,0.2129 4.24548,0.2129 5.49403,-0.2129 9.48969,-1.9164 12.23671,-3.4069 5.74384,-3.1939 9.24009,-6.3879 12.48663,-9.5818 6.24315,-6.3879 11.23788,-12.7758 15.98267,-18.7378 4.7449,-5.9621 9.24009,-11.9241 13.73517,-16.6086 3.99578,-3.8327 10.73846,-7.2396 17.48114,-9.5818 6.74279,-2.3422 13.73518,-4.4715 20.72767,-5.5362 13.73518,-2.5551 27.22065,-3.1939 38.70823,-2.5551 2.99672,0 5.74374,0.4258 8.49086,0.8517 2.74701,0.4258 5.24432,0.6388 7.74162,1.0646 2.49731,0.4259 4.74491,0.8517 7.24221,1.2776 2.24749,0.4259 4.24537,1.0647 6.24326,1.7035 3.99567,1.0646 7.49181,2.3422 10.23893,3.4068 1.49836,0.6388 2.99672,1.0647 4.24537,1.4905 1.24866,0.6388 2.2476,1.0647 3.24655,1.7035 3.99566,1.9163 5.99344,2.981 5.99344,2.981 l 1.99789,-2.3422 c -0.24971,0 -2.2476,-1.2776 -5.99356,-3.4069 z m -308.41707,26.8291 c -0.49945,0.213 -0.49945,0 0.49947,-0.2129 -0.24972,0 -0.49947,0 -0.49947,0.2129 z m 126.36363,12.35 h 0.24971 c -0.49942,0.2129 -0.74913,0 -0.24971,0 z"
         id="path1539"
         sodipodi:nodetypes="ccccsscccccssccccccscsccccccsccccccccsccccccccccccsccccccccccccccsccccccccscccccccccscccscsccsscccccccccccscs"
         style="fill:#1a1a1a;stroke-width:2.30598" />
    </g>
    <g
       id="g1228"
       style="fill:#ff00ff"
       transform="matrix(0.25312939,0,0,0.25312939,-911.45908,174.87713)" />
  </g>
</svg>
