<?xml version="1.0" encoding="UTF-8" standalone="no"?>
<svg
   xmlns:dc="http://purl.org/dc/elements/1.1/"
   xmlns:cc="http://creativecommons.org/ns#"
   xmlns:rdf="http://www.w3.org/1999/02/22-rdf-syntax-ns#"
   xmlns:svg="http://www.w3.org/2000/svg"
   xmlns="http://www.w3.org/2000/svg"
   xmlns:sodipodi="http://sodipodi.sourceforge.net/DTD/sodipodi-0.dtd"
   xmlns:inkscape="http://www.inkscape.org/namespaces/inkscape"
   width="79.374992mm"
   height="79.375mm"
   viewBox="0 0 79.374992 79.375"
   version="1.1"
   id="svg873"
   inkscape:version="1.0.1 (3bc2e813f5, 2020-09-07)"
   sodipodi:docname="logo_a_dark.svg">
  <defs
     id="defs867" />
  <sodipodi:namedview
     id="base"
     pagecolor="#ffffff"
     bordercolor="#666666"
     borderopacity="1.0"
     inkscape:pageopacity="0.0"
     inkscape:pageshadow="2"
     inkscape:zoom="0.70121422"
     inkscape:cx="20.262728"
     inkscape:cy="417.06444"
     inkscape:document-units="mm"
     inkscape:current-layer="layer1"
     inkscape:document-rotation="0"
     showgrid="false"
     inkscape:window-width="1920"
     inkscape:window-height="1043"
     inkscape:window-x="0"
     inkscape:window-y="0"
     inkscape:window-maximized="1" />
  <metadata
     id="metadata870">
    <rdf:RDF>
      <cc:Work
         rdf:about="">
        <dc:format>image/svg+xml</dc:format>
        <dc:type
           rdf:resource="http://purl.org/dc/dcmitype/StillImage" />
        <dc:title></dc:title>
      </cc:Work>
    </rdf:RDF>
  </metadata>
  <g
     inkscape:label="Layer 1"
     inkscape:groupmode="layer"
     id="layer1"
     transform="translate(-26.323234,-132.20366)">
    <path
       id="rect1163"
       style="fill:#1a1a1a;fill-opacity:1;stroke:none;stroke-width:0.585549;stroke-linecap:round;stroke-linejoin:round;stroke-miterlimit:4;stroke-dasharray:none;paint-order:stroke fill markers"
       d="m 29.982924,132.20366 c -2.027475,0 -3.65969,1.63222 -3.65969,3.65968 v 72.05564 c 0,2.02746 1.632215,3.65968 3.65969,3.65968 h 72.055616 c 2.02748,0 3.65969,-1.63222 3.65969,-3.65968 v -72.05564 c 0,-2.02746 -1.63221,-3.65968 -3.65969,-3.65968 z m 60.014567,7.08778 c 0.13769,0.002 0.26799,0.0349 0.38214,0.10164 1.8397,1.16164 3.34869,2.62896 4.41348,4.38062 0.0436,0.0436 0.0801,0.13799 0.073,0.1887 -0.007,0.0507 0.0367,0.0943 0.0296,0.14496 l -0.0285,0.20285 c -0.007,0.0507 -0.0212,0.15223 -0.0789,0.21001 -0.007,0.0507 -0.014,0.10134 -0.0719,0.15911 -0.0649,0.10849 -0.072,0.15923 -0.1298,0.21701 -0.0578,0.0578 -0.1155,0.11548 -0.17328,0.17326 l -2.08015,2.08016 -5.08453,5.08453 -4.622349,4.62236 -2.858823,2.85898 c 0.573088,0.53317 1.162288,1.06987 1.776519,1.61455 0.329406,0.32942 0.403807,0.79043 0.165973,1.02829 l -1.694604,1.69474 c -0.11893,0.11893 -0.284903,0.16128 -0.497628,0.12695 -0.177297,-0.0286 -0.401399,-0.13407 -0.566129,-0.29878 -0.768588,-0.68159 -1.479047,-1.32677 -2.154899,-1.95579 l -1.40298,1.30791 c -12.556172,12.5006 -24.03131,25.84553 -35.685174,39.16793 -0.05839,0.0467 -0.120306,0.086 -0.184388,0.11951 0.425185,0.0923 0.829707,0.17784 0.895879,0.17784 0.603197,0.0156 1.316091,-0.0313 2.120345,-0.18713 0.804254,-0.14026 1.718124,-0.37392 2.723462,-0.67004 1.005337,-0.29611 2.120291,-0.63911 3.418072,-0.90406 0.658046,-0.14026 1.370939,-0.24931 2.156937,-0.28047 0.767688,-0.0312 1.699974,0.0467 2.577359,0.37397 0.201057,0.0935 0.42037,0.18711 0.621427,0.2962 l 0.292496,0.17141 c 0.05482,0.0312 0.09139,0.0623 0.146236,0.0935 l 0.146235,0.10908 0.274055,0.23388 0.07318,0.0623 c 0.01826,0.0156 0.01826,0.0312 0.03659,0.0467 0.05485,-0.0312 0.109564,-0.0779 0.164412,-0.12466 0.420396,-0.34287 0.840899,-0.77931 1.261295,-1.23128 l 0.328957,-0.34281 0.164544,-0.17155 c 0.09139,-0.0935 0.20111,-0.20255 0.329062,-0.29606 0.255905,-0.20261 0.584915,-0.34294 0.913924,-0.42087 0.329036,-0.0779 0.639763,-0.0779 0.932233,-0.0623 0.566632,0.0468 1.023567,0.1871 1.425707,0.35853 0.402114,0.17144 0.749433,0.37408 1.078442,0.59227 0.62148,0.43638 1.151546,0.93498 1.571943,1.48046 0.201083,0.26494 0.402166,0.56119 0.548401,0.85731 l 0.109644,0.18698 c 0.01826,0.0468 0.05477,0.10907 0.07305,0.14025 0.03654,0.0468 0.07321,0.0935 0.09149,0.12466 0.164492,-0.0624 0.383752,-0.21813 0.584835,-0.38956 0.420397,-0.35846 0.804254,-0.77933 1.188112,-1.20012 0.383857,-0.4208 0.749458,-0.84151 1.242986,-1.24673 0.146235,-0.10909 0.292496,-0.21827 0.438732,-0.2962 0.146235,-0.0623 0.292364,-0.15582 0.438599,-0.21815 0.164492,-0.0623 0.310806,-0.12464 0.457015,-0.18699 0.164518,-0.0467 0.310674,-0.0936 0.456909,-0.14039 0.603197,-0.15585 1.188138,-0.28046 1.75477,-0.3428 0.566658,-0.0623 1.11506,-0.0897 1.635998,-0.0858 0.520938,0.004 1.014492,0.039 1.471454,0.10136 0.913923,0.12468 1.681638,0.32733 2.266553,0.5611 0.29247,0.0935 0.548349,0.21813 0.767688,0.32723 0.10967,0.0468 0.201084,0.0935 0.292497,0.14024 l 0.219287,0.14038 c 0.274188,0.15585 0.420449,0.24932 0.438732,0.24932 l -0.146235,0.1714 c 0,0 -0.146288,-0.0779 -0.438732,-0.21815 -0.07313,-0.0468 -0.146209,-0.0779 -0.237596,-0.12465 -0.09141,-0.0312 -0.201136,-0.0625 -0.310806,-0.10922 -0.201057,-0.0779 -0.456909,-0.1714 -0.749353,-0.24932 -0.146235,-0.0468 -0.29255,-0.0935 -0.457041,-0.12466 -0.182801,-0.0312 -0.347292,-0.0623 -0.530093,-0.0935 -0.182774,-0.0312 -0.365469,-0.0468 -0.566526,-0.0779 -0.201083,-0.0312 -0.402246,-0.0623 -0.621586,-0.0623 -0.840819,-0.0468 -1.827768,-3e-5 -2.833105,0.18698 -0.511783,0.0779 -1.023646,0.23371 -1.517174,0.40514 -0.493527,0.17144 -0.987001,0.42082 -1.279472,0.70135 -0.329009,0.34288 -0.658098,0.77931 -1.00539,1.2157 -0.347292,0.43638 -0.712867,0.90397 -1.169829,1.37153 -0.237622,0.23377 -0.493501,0.46756 -0.913923,0.70134 -0.201057,0.10909 -0.493475,0.23373 -0.895615,0.24932 -0.10967,0 -0.20111,0 -0.31078,-0.0156 -0.109669,-0.0156 -0.201109,-0.0311 -0.292497,-0.0623 -0.201056,-0.0468 -0.347239,-0.14022 -0.475191,-0.21815 -0.10967,-0.0779 -0.219366,-0.17154 -0.292471,-0.24946 -0.09141,-0.0935 -0.146182,-0.17139 -0.219313,-0.24931 -0.0731,-0.0935 -0.109696,-0.17139 -0.164544,-0.24932 l -0.109643,-0.18713 c -0.146236,-0.2182 -0.292391,-0.42069 -0.475166,-0.62329 -0.365601,-0.4208 -0.804359,-0.77934 -1.27963,-1.07546 -0.255879,-0.14027 -0.511731,-0.26488 -0.749353,-0.35839 -0.255905,-0.0935 -0.493528,-0.14039 -0.658046,-0.14039 -0.0731,0 -0.127952,1.5e-4 -0.146235,0.0157 -0.01826,0 -0.01826,0 -0.01826,0.0156 l -0.01826,0.0312 -0.146262,0.18699 -0.274188,0.37397 c -0.383831,0.49872 -0.767662,1.01304 -1.297754,1.52734 -0.274162,0.26495 -0.548349,0.5299 -1.060159,0.79484 -0.255905,0.12468 -0.603118,0.28062 -1.133211,0.3118 -0.255905,0.0156 -0.566658,-0.0156 -0.822563,-0.10908 -0.127952,-0.0468 -0.255852,-0.0936 -0.347239,-0.15597 -0.03657,-0.0312 -0.09141,-0.0623 -0.146262,-0.0935 l -0.127926,-0.0935 -0.109802,-0.0935 -0.09133,-0.0935 -0.09136,-0.0935 -0.164544,-0.15582 -0.09136,-0.0781 c -0.01826,0 -0.03659,-0.0312 -0.03659,-0.0312 l -0.01826,-0.0156 c -0.03654,-0.0156 -0.07308,-0.0467 -0.09136,-0.0623 -0.03654,-0.0468 -0.146183,-0.0935 -0.219287,-0.14024 -0.07313,-0.0468 -0.16465,-0.0623 -0.256037,-0.10908 -0.712867,-0.26495 -1.864387,-0.23376 -3.015959,-0.0779 -1.151546,0.14027 -2.321349,0.37409 -3.418073,0.52994 -1.096724,0.17143 -2.175113,0.28048 -3.125602,0.28048 -0.95049,0.0156 -1.809671,-0.10905 -2.46769,-0.29607 -0.493527,-0.12468 -0.877358,-0.31176 -1.151519,-0.45202 -0.237623,-0.0468 -0.457015,-0.17137 -0.566685,-0.35839 -0.03948,-0.055 -0.04024,-0.0558 -0.07305,-0.1248 -0.01826,-0.0623 -0.03659,-0.14023 -0.03659,-0.21816 -1.029415,-1.48237 -2.182363,-4.77652 -0.123534,-7.65889 0,0 0,-0.041 0.0412,-0.041 0,-0.0412 0.04117,-0.0413 0.04117,-0.0825 l 0.04117,-0.0412 c 9.254648,-11.42865 19.25992,-21.91857 29.412247,-32.51759 l 4.473522,-4.52415 c -0.666088,-0.71388 -1.342548,-1.45892 -2.054727,-2.26057 -0.329407,-0.32942 -0.403675,-0.79029 -0.165815,-1.02814 l 1.694604,-1.69475 c 0.11893,-0.11893 0.284771,-0.16114 0.497469,-0.1268 0.177297,0.0286 0.4014,0.13378 0.566129,0.29849 0.535781,0.59448 1.067779,1.17571 1.6011,1.74879 1.682459,-1.68247 3.365023,-3.3649 5.047509,-5.04737 l 4.622331,-4.62249 4.96903,-4.96903 c 0.23111,-0.23111 0.49887,-0.36771 0.80312,-0.41014 0.0472,-0.007 0.0939,-0.01 0.1398,-0.009 z m -1.1688,2.57836 0.82013,2.60567 2.60554,0.82 -0.82016,-2.60538 z m -2.03398,2.03413 0.82013,2.60553 2.60553,0.82014 -0.82015,-2.60553 z m -2.03412,2.03413 0.82029,2.60538 2.60535,0.82029 -0.82013,-2.60553 z m -2.034143,2.03398 0.820153,2.60553 2.60551,0.82014 -0.82013,-2.60538 z m -2.034117,2.03413 0.820288,2.60552 2.605382,0.82015 -0.82016,-2.60538 z m -2.033985,2.03413 0.819997,2.60538 2.60567,0.82028 -0.820129,-2.60552 z m -2.034116,2.03398 0.820288,2.60553 2.605378,0.82014 -0.820155,-2.60538 z m -4.054237,0.006 -0.832432,0.83244 c 0.222462,0.25123 0.445003,0.49963 0.667755,0.7468 0.02773,0.0308 0.05543,0.0618 0.08319,0.0925 0.227039,0.25135 0.454634,0.50087 0.682916,0.74852 0,0.001 0.0026,0.002 0.0032,0.004 1.446768,1.56941 2.926768,3.06962 4.546574,4.55874 0,5.3e-4 0,7.9e-4 0.0026,0.001 0.02196,0.0202 0.04416,0.0404 0.0662,0.0606 0.128535,0.11786 0.258075,0.23562 0.388409,0.35339 0.04784,0.0432 0.09602,0.0866 0.144092,0.1298 0.120597,0.10837 0.242014,0.21673 0.364252,0.32508 0.0326,0.0289 0.06509,0.0578 0.09779,0.0866 0.16174,0.1428 0.324485,0.28555 0.489347,0.42844 l 0.832564,-0.83258 c -0.229129,-0.19897 -0.456274,-0.39909 -0.682466,-0.59985 -0.05681,-0.0504 -0.113507,-0.10088 -0.170127,-0.15139 -0.224764,-0.20059 -0.448628,-0.40178 -0.670322,-0.60399 -1.633776,-1.49029 -3.178916,-3.02317 -4.597321,-4.57546 -0.114115,-0.1249 -0.227277,-0.25 -0.339804,-0.37512 -0.01587,-0.0177 -0.03178,-0.0352 -0.0476,-0.0529 -0.09999,-0.11141 -0.199152,-0.22293 -0.297788,-0.33451 -0.04821,-0.0546 -0.09604,-0.10932 -0.14396,-0.16397 -0.07107,-0.081 -0.14224,-0.16207 -0.212566,-0.24317 -0.125519,-0.14488 -0.250296,-0.28978 -0.373407,-0.43488 z m 0.806979,8.08834 c -9.945555,9.67807 -19.137683,19.71709 -28.169076,30.20784 -4.306649,5.0343 -5.174827,6.08293 -5.993157,4.01264 -0.700008,1.56472 -0.104986,3.3129 0.306785,4.25997 10.978938,-13.16303 22.517364,-25.61651 34.390674,-37.94523 z m -18.733823,40.08685 c -0.03545,0.0113 -0.03135,0.0188 -0.0026,0.006 0,-0.003 0,-0.005 0.0026,-0.006 z m 9.246844,0.91034 c -0.03657,0 -0.01852,0.0156 0.01826,0 z" />
  </g>
</svg>
