<?xml version="1.0" encoding="UTF-8" standalone="no"?>
<svg
   xmlns:dc="http://purl.org/dc/elements/1.1/"
   xmlns:cc="http://creativecommons.org/ns#"
   xmlns:rdf="http://www.w3.org/1999/02/22-rdf-syntax-ns#"
   xmlns:svg="http://www.w3.org/2000/svg"
   xmlns="http://www.w3.org/2000/svg"
   xmlns:sodipodi="http://sodipodi.sourceforge.net/DTD/sodipodi-0.dtd"
   xmlns:inkscape="http://www.inkscape.org/namespaces/inkscape"
   width="79.374992mm"
   height="79.375mm"
   viewBox="0 0 79.374992 79.375"
   version="1.1"
   id="svg873"
   inkscape:version="1.0.1 (3bc2e813f5, 2020-09-07)"
   sodipodi:docname="logo_b.svg">
  <defs
     id="defs867" />
  <sodipodi:namedview
     id="base"
     pagecolor="#ffffff"
     bordercolor="#666666"
     borderopacity="1.0"
     inkscape:pageopacity="0.0"
     inkscape:pageshadow="2"
     inkscape:zoom="0.70121422"
     inkscape:cx="138.88857"
     inkscape:cy="388.80223"
     inkscape:document-units="mm"
     inkscape:current-layer="layer1"
     inkscape:document-rotation="0"
     showgrid="false"
     inkscape:window-width="1920"
     inkscape:window-height="1043"
     inkscape:window-x="0"
     inkscape:window-y="0"
     inkscape:window-maximized="1" />
  <metadata
     id="metadata870">
    <rdf:RDF>
      <cc:Work
         rdf:about="">
        <dc:format>image/svg+xml</dc:format>
        <dc:type
           rdf:resource="http://purl.org/dc/dcmitype/StillImage" />
        <dc:title></dc:title>
      </cc:Work>
    </rdf:RDF>
  </metadata>
  <g
     inkscape:label="Layer 1"
     inkscape:groupmode="layer"
     id="layer1"
     transform="translate(5.0631869,-139.68137)">
    <path
       id="rect1153"
       style="fill:#1a1a1a;fill-opacity:1;stroke:none;stroke-width:0.552326;stroke-linecap:round;stroke-linejoin:round;stroke-miterlimit:4;stroke-dasharray:none;paint-order:stroke fill markers"
       d="m -1.6111679,139.68137 c -1.912409,0 -3.452019,1.53961 -3.452019,3.45202 v 72.47096 c 0,1.91241 1.53961,3.45202 3.452019,3.45202 H 70.859799 c 1.9124,0 3.45201,-1.53961 3.45201,-3.45202 v -72.47096 c 0,-1.91241 -1.53961,-3.45202 -3.45201,-3.45202 z m 36.0634749,1.35464 a 38.332862,38.332862 0 0 1 0.171953,0 38.332862,38.332862 0 0 1 38.332909,38.33291 38.332862,38.332862 0 0 1 -1.06703,8.9811 h -8.527075 c -2.323069,0 -4.193249,1.62692 -4.193249,3.6481 0,1.52659 1.067223,2.82731 2.59035,3.37301 h -4.904581 c -2.323069,0 -4.193276,1.62693 -4.193276,3.64808 0,2.02118 1.870207,3.6481 4.193276,3.6481 h 8.207613 a 38.332862,38.332862 0 0 1 -30.438937,15.03455 38.332862,38.332862 0 0 1 -38.3328069,-38.33294 38.332862,38.332862 0 0 1 0.343853,-5.11397 H 16.91747 c 2.323095,0 4.193143,-1.62695 4.193143,-3.6481 0,-1.28503 -0.756973,-2.40893 -1.904682,-3.05843 h 3.824737 c 2.323095,0 4.193408,-1.62705 4.193408,-3.64823 0,-2.02115 -1.870313,-3.64794 -4.193408,-3.64794 H 1.3995251 A 38.332862,38.332862 0 0 1 34.452307,141.03601 Z m 12.639305,5.0559 c -0.09671,0 -0.195157,0.0217 -0.29128,0.0624 -0.247756,0.10488 -0.443177,0.28125 -0.58629,0.52914 l -3.077157,5.32974 -2.862501,4.95814 c -1.041876,1.80461 -2.083805,3.60912 -3.125708,5.41374 -0.581051,-0.36391 -1.162817,-0.73493 -1.750827,-1.11638 -0.176662,-0.102 -0.390208,-0.14018 -0.546656,-0.1242 -0.187748,0.0191 -0.318505,0.0924 -0.392139,0.21995 l -1.049364,1.81782 c -0.147293,0.25514 0.02011,0.62828 0.373407,0.83227 0.784145,0.51671 1.52527,0.9937 2.250546,1.44661 l -2.758917,4.84095 c -6.185773,11.26728 -12.271824,22.40907 -17.510178,34.1747 l -0.0254,0.0441 c 0.0093,0.0348 -0.0254,0.0443 -0.01614,0.0791 -0.03485,0.009 -0.0254,0.0441 -0.0254,0.0441 -0.90043,2.40347 0.122978,4.54615 1.18663,5.79265 0.0029,0.0683 0.01826,0.13549 0.0344,0.19029 0.0318,0.0668 0.03244,0.0675 0.07067,0.12081 0.106203,0.18113 0.31869,0.30194 0.548798,0.34721 0.09951,0.0962 0.240269,0.16399 0.384466,0.18394 0.207328,0.0911 0.450215,0.18277 0.730727,0.25365 0.637275,0.18111 1.469337,0.30176 2.389849,0.28668 0.920485,0 1.964875,-0.10557 3.026992,-0.27159 1.062117,-0.15092 2.195089,-0.37738 3.310308,-0.51322 1.115245,-0.15091 2.230358,-0.18108 2.920735,0.0755 0.0885,0.0453 0.177059,0.0604 0.247862,0.10572 0.0708,0.0453 0.177112,0.0905 0.212513,0.13579 0.01773,0.0151 0.05305,0.0453 0.08845,0.0604 l 0.01773,0.0151 c 0,0 0.01773,0.0301 0.03532,0.0301 l 0.08861,0.0755 0.159253,0.15089 0.08845,0.0906 0.08845,0.0906 0.106389,0.0905 0.123931,0.0906 c 0.0531,0.0302 0.106177,0.0603 0.141579,0.0905 0.08853,0.0603 0.212407,0.10573 0.336312,0.15102 0.247835,0.0905 0.548825,0.12068 0.79666,0.10557 0.513371,-0.0302 0.849551,-0.18103 1.097359,-0.30178 0.495671,-0.25657 0.76118,-0.51324 1.026716,-0.76983 0.513371,-0.49808 0.885163,-0.99613 1.256903,-1.4791 l 0.265509,-0.36233 0.141579,-0.1811 0.01773,-0.0302 c 0,-0.0151 -5.3e-5,-0.0151 0.01773,-0.0151 0.01773,-0.0151 0.07091,-0.0151 0.141711,-0.0151 0.159332,0 0.38944,0.0454 0.637275,0.13592 0.230135,0.0906 0.477917,0.21137 0.725726,0.34724 0.460269,0.28675 0.885058,0.63373 1.239097,1.04126 0.177032,0.19619 0.318611,0.39251 0.460242,0.60384 l 0.106257,0.18108 c 0.0531,0.0755 0.08856,0.15081 0.159385,0.24138 0.0708,0.0754 0.123852,0.15107 0.212381,0.24164 0.0708,0.0755 0.176953,0.16605 0.283157,0.24151 0.123931,0.0755 0.26551,0.16589 0.460243,0.21116 0.0885,0.0302 0.177112,0.0453 0.283289,0.0604 0.10623,0.0151 0.194787,0.0151 0.30099,0.0151 0.38944,-0.0151 0.672598,-0.13586 0.867331,-0.24151 0.407141,-0.22638 0.654976,-0.45281 0.885111,-0.67921 0.442542,-0.45281 0.796501,-0.90562 1.13284,-1.32821 0.336338,-0.42262 0.655081,-0.84516 0.973719,-1.17721 0.283237,-0.27168 0.761127,-0.51319 1.23907,-0.67921 0.47797,-0.16603 0.973746,-0.31705 1.469417,-0.39254 0.973614,-0.18111 1.929394,-0.22638 2.743676,-0.18108 0.212434,0 0.40722,0.0302 0.601954,0.0604 0.194733,0.0302 0.37166,0.0453 0.548692,0.0755 0.177007,0.0302 0.336339,0.0604 0.513345,0.0906 0.159306,0.0302 0.300964,0.0754 0.442569,0.12067 0.283236,0.0755 0.531018,0.16605 0.725725,0.24151 0.10623,0.0453 0.212461,0.0754 0.30099,0.10557 0.0885,0.0453 0.159359,0.0756 0.230161,0.12084 0.283237,0.13583 0.424921,0.21129 0.424921,0.21129 l 0.141579,-0.16613 c -0.01773,0 -0.159359,-0.0904 -0.424895,-0.24135 l -0.212381,-0.13581 c -0.0885,-0.0453 -0.177112,-0.0907 -0.283316,-0.13592 -0.212434,-0.10565 -0.460163,-0.22645 -0.743399,-0.31702 -0.566447,-0.22641 -1.310032,-0.42254 -2.195142,-0.5433 -0.442543,-0.0604 -0.920407,-0.0944 -1.424914,-0.0982 -0.504508,-0.004 -1.035659,0.0228 -1.584431,0.0831 -0.548772,0.0603 -1.115272,0.18119 -1.699445,0.33211 -0.141605,0.0453 -0.283104,0.0905 -0.442436,0.13578 -0.141632,0.0604 -0.283369,0.12073 -0.442675,0.18111 -0.141631,0.0604 -0.283157,0.15092 -0.424762,0.21129 -0.141631,0.0755 -0.283289,0.18116 -0.424894,0.28684 -0.477943,0.39243 -0.832009,0.79999 -1.203775,1.20753 -0.37174,0.40751 -0.743479,0.81494 -1.15062,1.16208 -0.194733,0.16602 -0.407035,0.31707 -0.566367,0.37743 -0.01773,-0.0302 -0.05318,-0.0755 -0.08858,-0.12081 -0.01773,-0.0302 -0.0531,-0.0906 -0.0708,-0.13592 L 41.418115,210.808 c -0.141605,-0.28678 -0.336445,-0.57351 -0.531151,-0.8301 -0.407141,-0.52827 -0.92038,-1.01132 -1.522254,-1.43394 -0.318638,-0.21132 -0.655082,-0.40745 -1.044522,-0.57351 -0.38944,-0.16602 -0.831903,-0.30181 -1.380675,-0.34708 -0.28321,-0.0151 -0.584148,-0.0151 -0.902785,0.0604 -0.318638,0.0755 -0.637276,0.21129 -0.885111,0.40751 -0.123931,0.0906 -0.230134,0.19613 -0.318638,0.28667 l -0.159385,0.166 -0.318637,0.33227 c -0.407168,0.4377 -0.814282,0.86024 -1.221449,1.19229 -0.0531,0.0453 -0.106125,0.0905 -0.159227,0.12068 -0.01773,-0.0151 -0.01773,-0.0302 -0.03548,-0.0453 l -0.07093,-0.0604 -0.265377,-0.22627 -0.141579,-0.10572 c -0.0531,-0.0302 -0.08848,-0.0603 -0.141578,-0.0905 l -0.283316,-0.16613 c -0.194733,-0.10565 -0.407088,-0.19611 -0.601821,-0.28668 -0.849683,-0.31694 -1.752627,-0.39238 -2.496106,-0.36219 -0.761206,0.0302 -1.45161,0.13573 -2.088885,0.27157 -1.25685,0.25659 -2.336562,0.58865 -3.310176,0.87543 -0.973614,0.28678 -1.858671,0.51316 -2.637578,0.64899 -0.778881,0.15095 -1.469231,0.19619 -2.053405,0.18111 -0.01773,0 -0.0603,-0.006 -0.120967,-0.0169 6.822466,-13.87983 13.492056,-27.73723 21.262631,-41.12758 l 0.890375,-1.42451 c 0.714322,0.37891 1.461691,0.76364 2.266342,1.16602 0.176689,0.10199 0.390234,0.14028 0.546682,0.12432 0.187722,-0.019 0.318347,-0.0925 0.39198,-0.22008 l 1.049629,-1.81784 c 0.147293,-0.25511 -0.02011,-0.62812 -0.373513,-0.83212 -0.643069,-0.32155 -1.263306,-0.64209 -1.868963,-0.96321 l 1.770512,-3.0665 2.862501,-4.95784 3.148621,-5.4538 1.288176,-2.23102 c 0.0358,-0.062 0.07144,-0.12399 0.10721,-0.18595 0.03577,-0.062 0.0304,-0.10644 0.0607,-0.21291 0.03574,-0.062 0.03032,-0.10655 0.02487,-0.15105 0.03577,-0.0619 0.02461,-0.15087 0.01905,-0.19537 l -0.02196,-0.17815 c -0.0056,-0.0445 -0.05239,-0.0715 -0.05784,-0.11596 -0.0056,-0.0445 -0.05771,-0.11605 -0.104511,-0.14306 -1.297781,-1.24045 -2.90703,-2.13961 -4.726596,-2.70526 -0.05585,-0.0154 -0.113215,-0.0225 -0.171238,-0.0225 z m -0.579173,2.46927 2.390008,0.10316 1.284261,2.01822 -2.390008,-0.10316 z m -1.259708,2.18165 2.390114,0.10316 1.284261,2.01835 -2.389981,-0.10329 z m -1.259602,2.18178 2.390008,0.1033 1.284261,2.01824 -2.389849,-0.1033 z m -1.259707,2.18181 2.390113,0.10316 1.284261,2.01822 -2.390113,-0.1033 z m -1.259602,2.18178 2.390008,0.10329 1.284261,2.01809 -2.389849,-0.10327 z m -1.259576,2.18181 2.389982,0.10313 1.284261,2.01824 -2.390114,-0.10329 z m -1.259734,2.18165 2.390008,0.10342 1.284393,2.01795 -2.389981,-0.10316 z m -3.428153,0.92437 h 1.32e-4 c 0.137028,0.0948 0.275379,0.18918 0.414391,0.28329 0.07787,0.0527 0.156395,0.10507 0.234897,0.15751 0.05289,0.0354 0.105807,0.0709 0.158988,0.10612 0.108744,0.072 0.217831,0.14375 0.32766,0.21535 0.01746,0.0114 0.03477,0.0228 0.05218,0.0341 0.12356,0.0803 0.247729,0.16039 0.372586,0.24016 1.551728,0.99166 3.206274,1.93815 4.926171,2.82853 0.233336,0.12081 0.468392,0.24035 0.704004,0.35909 0.05935,0.0299 0.118665,0.0598 0.178143,0.0895 0.236855,0.11856 0.474398,0.23638 0.713317,0.35274 l -0.515646,0.89294 c -0.171821,-0.0835 -0.341868,-0.16748 -0.511069,-0.25162 -0.03421,-0.0169 -0.06821,-0.0341 -0.102341,-0.0511 -0.127979,-0.064 -0.25527,-0.12811 -0.381873,-0.19243 -0.05046,-0.0257 -0.101045,-0.0514 -0.151289,-0.0771 -0.136975,-0.0701 -0.273156,-0.14021 -0.408596,-0.21077 -0.02328,-0.0122 -0.04667,-0.0241 -0.06985,-0.0363 0,0 0,0 -0.0026,0 -1.70778,-0.89254 -3.299751,-1.8261 -4.879367,-2.8258 0,0 -0.0026,-0.003 -0.0037,-0.003 -0.249264,-0.15775 -0.498157,-0.31743 -0.747183,-0.47856 -0.03045,-0.0196 -0.06085,-0.0395 -0.09131,-0.0592 -0.244448,-0.15859 -0.489082,-0.31835 -0.734218,-0.48046 z m 2.516082,6.6593 0.573881,0.33144 c -7.249557,13.12058 -14.187435,26.27067 -20.491291,39.8943 -0.563007,-0.70781 -1.462564,-2.05158 -1.225074,-3.53388 1.161521,1.56583 1.658197,0.48199 4.160229,-4.75287 5.262086,-10.92163 10.762641,-21.49763 16.982255,-31.93899 z m -5.420228,41.15914 c 0,0.003 -0.0026,0.004 -0.0026,0.006 -0.0282,0.0119 -0.03217,0.004 0.0026,-0.006 z m 8.955167,0.88162 h 0.01746 c -0.0354,0.0151 -0.05292,0 -0.01746,0 z" />
  </g>
</svg>
