<?xml version="1.0" encoding="UTF-8" standalone="no"?>
<svg
   xmlns:dc="http://purl.org/dc/elements/1.1/"
   xmlns:cc="http://creativecommons.org/ns#"
   xmlns:rdf="http://www.w3.org/1999/02/22-rdf-syntax-ns#"
   xmlns:svg="http://www.w3.org/2000/svg"
   xmlns="http://www.w3.org/2000/svg"
   xmlns:sodipodi="http://sodipodi.sourceforge.net/DTD/sodipodi-0.dtd"
   xmlns:inkscape="http://www.inkscape.org/namespaces/inkscape"
   width="79.375mm"
   height="79.374992mm"
   viewBox="0 0 79.375 79.374992"
   version="1.1"
   id="svg873"
   inkscape:version="1.0.1 (3bc2e813f5, 2020-09-07)"
   sodipodi:docname="logo_c.svg">
  <defs
     id="defs867" />
  <sodipodi:namedview
     id="base"
     pagecolor="#ffffff"
     bordercolor="#666666"
     borderopacity="1.0"
     inkscape:pageopacity="0.0"
     inkscape:pageshadow="2"
     inkscape:zoom="1.4024284"
     inkscape:cx="68.543482"
     inkscape:cy="228.36369"
     inkscape:document-units="mm"
     inkscape:current-layer="layer1"
     inkscape:document-rotation="0"
     showgrid="false"
     inkscape:window-width="1920"
     inkscape:window-height="1043"
     inkscape:window-x="0"
     inkscape:window-y="0"
     inkscape:window-maximized="1" />
  <metadata
     id="metadata870">
    <rdf:RDF>
      <cc:Work
         rdf:about="">
        <dc:format>image/svg+xml</dc:format>
        <dc:type
           rdf:resource="http://purl.org/dc/dcmitype/StillImage" />
        <dc:title></dc:title>
      </cc:Work>
    </rdf:RDF>
  </metadata>
  <g
     inkscape:label="Layer 1"
     inkscape:groupmode="layer"
     id="layer1"
     transform="translate(5.9325785,-140.59854)">
    <path
       id="path1093"
       style="fill:#1a1a1a;fill-opacity:1;stroke:none;stroke-width:0.587116;stroke-linecap:round;stroke-linejoin:round;stroke-miterlimit:4;stroke-dasharray:none;paint-order:stroke fill markers"
       d="M 33.576884,140.59864 A 39.687511,39.687389 0 0 0 -0.64395448,160.49385 H 21.751596 c 2.405169,0 4.341575,1.68439 4.341575,3.77698 0,2.09259 -1.936406,3.77711 -4.341575,3.77711 H 17.79171 c 1.18827,0.67244 1.972045,1.83605 1.972045,3.16648 0,2.09259 -1.936247,3.77696 -4.341442,3.77696 H -5.5765285 a 39.687511,39.687389 0 0 0 -0.35605,5.29479 39.687511,39.687389 0 0 0 39.6875005,39.68736 39.687511,39.687389 0 0 0 31.5146,-15.5658 h -8.497676 c -2.405194,0 -4.341468,-1.68439 -4.341468,-3.77698 0,-2.09257 1.936274,-3.77696 4.341468,-3.77696 h 5.07791 c -1.576943,-0.56496 -2.681869,-1.91174 -2.681869,-3.49229 0,-2.09258 1.936273,-3.77698 4.341442,-3.77698 h 8.828378 a 39.687511,39.687389 0 0 0 1.104715,-9.29835 39.687511,39.687389 0 0 0 -39.6875,-39.68753 39.687511,39.687389 0 0 0 -0.178038,0 z m 13.085974,5.23457 c 0.06009,0 0.119512,0.007 0.177324,0.0233 1.88386,0.58566 3.549941,1.5167 4.893574,2.80099 0.04847,0.028 0.102527,0.10199 0.108242,0.14806 0.0056,0.0461 0.05419,0.0741 0.0599,0.12012 l 0.02275,0.18433 c 0.0056,0.0461 0.0172,0.13822 -0.01984,0.20238 0.0058,0.0461 0.01138,0.0921 -0.02566,0.15624 -0.03135,0.11025 -0.02567,0.15629 -0.06279,0.22045 -0.03704,0.0642 -0.07403,0.12835 -0.111098,0.19251 l -1.333606,2.30989 -3.259958,5.64653 -2.963677,5.1331 -1.833033,3.17482 c 0.627062,0.33245 1.269153,0.66429 1.934951,0.99719 0.365812,0.21121 0.53922,0.59745 0.386715,0.86161 l -1.086644,1.88204 c -0.07625,0.13205 -0.211561,0.20804 -0.405924,0.22791 -0.161978,0.0164 -0.383011,-0.023 -0.565917,-0.12872 -0.83312,-0.41659 -1.606894,-0.81492 -2.346458,-1.20722 l -0.921808,1.47482 c -8.045185,13.8635 -14.950546,28.21053 -22.014127,42.5808 0.06281,0.0114 0.106892,0.0177 0.12528,0.0177 0.604811,0.0156 1.31961,-0.0312 2.126007,-0.18748 0.806423,-0.14065 1.722728,-0.37507 2.730764,-0.67199 1.00801,-0.29689 2.125954,-0.64066 3.427228,-0.90633 0.659765,-0.14063 1.374589,-0.24998 2.162676,-0.28123 0.769753,-0.0312 1.704553,0.0468 2.584266,0.37497 0.201613,0.0938 0.421481,0.18749 0.623094,0.29686 l 0.293264,0.17201 c 0.05498,0.0312 0.09165,0.0625 0.146632,0.0937 l 0.146659,0.10938 0.274769,0.23434 0.0734,0.0625 c 0.01826,0.0156 0.01826,0.0312 0.03667,0.0469 0.05501,-0.0312 0.109882,-0.0781 0.164862,-0.12499 0.421534,-0.3438 0.843121,-0.78126 1.264655,-1.23444 l 0.32983,-0.34385 0.164994,-0.17187 c 0.09163,-0.0937 0.201666,-0.2031 0.329962,-0.29687 0.256593,-0.20314 0.586475,-0.34385 0.916358,-0.42198 0.329909,-0.0781 0.641482,-0.0781 0.93472,-0.0625 0.56814,0.0469 1.026319,0.18746 1.429517,0.35936 0.403199,0.1719 0.751443,0.37508 1.081352,0.59386 0.62312,0.43754 1.154615,0.9376 1.57615,1.48455 0.201586,0.26564 0.403225,0.56253 0.549857,0.85945 l 0.109934,0.18748 c 0.01826,0.0469 0.05493,0.10951 0.07324,0.14076 0.03665,0.0469 0.07342,0.0937 0.09173,0.12499 0.164968,-0.0625 0.38481,-0.21884 0.586422,-0.39074 0.421534,-0.35941 0.806397,-0.78126 1.191287,-1.20317 0.384889,-0.42193 0.751469,-0.84391 1.24632,-1.25021 0.146632,-0.10937 0.29329,-0.2187 0.439896,-0.29686 0.146632,-0.0625 0.293158,-0.15637 0.439764,-0.21886 0.164941,-0.0625 0.311652,-0.12499 0.458258,-0.18748 0.164941,-0.0469 0.311494,-0.0937 0.458126,-0.14063 0.604811,-0.15626 1.191313,-0.28123 1.759479,-0.34372 0.56814,-0.0625 1.118024,-0.0899 1.640364,-0.086 0.52234,0.004 1.017191,0.0391 1.475396,0.10163 0.916384,0.12499 1.686137,0.32805 2.272639,0.56245 0.293237,0.0938 0.549777,0.21883 0.769725,0.32824 0.109961,0.0469 0.201639,0.0937 0.293265,0.14063 l 0.219868,0.14059 c 0.274929,0.15627 0.421587,0.24998 0.439923,0.24998 l -0.146632,0.17201 c 0,0 -0.146685,-0.0782 -0.439923,-0.21886 -0.07332,-0.0469 -0.146579,-0.0781 -0.238204,-0.12499 -0.09165,-0.0312 -0.201665,-0.0625 -0.311626,-0.10938 -0.201613,-0.0781 -0.458153,-0.17185 -0.751391,-0.24998 -0.146632,-0.0469 -0.293317,-0.0937 -0.458258,-0.12499 -0.183277,-0.0312 -0.348218,-0.0626 -0.531495,-0.0939 -0.183277,-0.0312 -0.366448,-0.0469 -0.56806,-0.0781 -0.201613,-0.0312 -0.403305,-0.0625 -0.623226,-0.0625 -0.843069,-0.0469 -1.832663,-3e-5 -2.840699,0.18748 -0.51316,0.0781 -1.026398,0.23448 -1.521249,0.40638 -0.49485,0.17187 -0.989621,0.42193 -1.282885,0.70321 -0.329882,0.3438 -0.659871,0.78126 -1.008089,1.2188 -0.348218,0.43754 -0.714772,0.90638 -1.172951,1.3752 -0.238257,0.23439 -0.494823,0.46881 -0.916358,0.70321 -0.201612,0.10938 -0.494823,0.23437 -0.898022,0.24998 -0.109961,0 -0.201639,0 -0.311626,-0.0156 -0.109961,-0.0156 -0.201613,-0.0312 -0.293264,-0.0625 -0.201613,-0.0469 -0.348165,-0.1406 -0.476462,-0.21876 -0.109961,-0.0781 -0.219948,-0.17184 -0.293264,-0.24997 -0.09165,-0.0937 -0.146579,-0.17198 -0.219869,-0.25012 -0.07332,-0.0938 -0.110014,-0.17184 -0.164994,-0.24997 l -0.109934,-0.18751 c -0.146632,-0.21876 -0.293344,-0.42196 -0.476621,-0.62508 -0.366554,-0.42193 -0.80637,-0.78129 -1.282859,-1.07821 -0.256592,-0.14065 -0.513132,-0.26572 -0.75139,-0.35948 -0.256593,-0.0937 -0.49485,-0.14063 -0.659791,-0.14063 -0.07332,0 -0.128323,0 -0.146632,0.0156 -0.01826,0 -0.01826,0 -0.01826,0.0156 l -0.01826,0.0312 -0.146632,0.18751 -0.274928,0.3751 c -0.38489,0.50006 -0.769726,1.01573 -1.301221,1.53143 -0.274929,0.26564 -0.549831,0.53131 -1.063017,0.79695 -0.256593,0.12502 -0.604731,0.28123 -1.136253,0.31248 -0.256566,0.0156 -0.568166,-0.0156 -0.824759,-0.10936 -0.128296,-0.0469 -0.25654,-0.0937 -0.348165,-0.15623 -0.03667,-0.0313 -0.09168,-0.0625 -0.146632,-0.0937 l -0.128297,-0.0937 -0.110093,-0.0937 -0.0916,-0.0939 -0.09157,-0.0937 -0.164994,-0.15624 -0.0916,-0.0781 c -0.01826,0 -0.0367,-0.0313 -0.0367,-0.0313 l -0.01826,-0.0156 c -0.03665,-0.0156 -0.07326,-0.0469 -0.0916,-0.0625 -0.03664,-0.0469 -0.146711,-0.0937 -0.220027,-0.14063 -0.07329,-0.0469 -0.164941,-0.0625 -0.256566,-0.10935 -0.714773,-0.26567 -1.869389,-0.23453 -3.024029,-0.0783 -1.154642,0.14062 -2.327566,0.37507 -3.427228,0.53136 -1.099661,0.17187 -2.180933,0.28123 -3.133963,0.28123 -0.953029,0.0156 -1.814512,-0.10936 -2.474304,-0.29687 -0.290433,-0.0734 -0.541893,-0.1683 -0.756549,-0.2626 -0.149278,-0.0206 -0.295011,-0.0909 -0.398039,-0.1905 -0.238258,-0.0469 -0.458232,-0.17195 -0.568193,-0.35949 -0.03961,-0.0551 -0.04035,-0.0558 -0.07326,-0.12498 -0.01667,-0.0567 -0.0326,-0.12634 -0.03553,-0.19709 -1.101248,-1.29056 -2.160799,-3.50885 -1.228566,-5.99729 0,0 -0.0098,-0.036 0.02646,-0.0457 -0.0098,-0.0361 0.02646,-0.0458 0.01667,-0.0818 l 0.02646,-0.0457 c 5.423456,-12.18139 11.724561,-23.7168 18.128906,-35.38223 l 2.856442,-5.01211 c -0.750887,-0.46892 -1.518232,-0.96276 -2.330106,-1.49775 -0.365813,-0.21119 -0.539088,-0.59746 -0.386583,-0.86159 l 1.086512,-1.88203 c 0.07625,-0.13208 0.211561,-0.20791 0.405924,-0.22778 0.161978,-0.0164 0.38301,0.023 0.565917,0.12858 0.60878,0.39492 1.211209,0.77912 1.812793,1.15589 1.078732,-1.86841 2.157439,-3.73674 3.236171,-5.60512 l 2.963678,-5.13323 3.185847,-5.5181 c 0.148167,-0.25665 0.35052,-0.43926 0.607034,-0.54782 0.09948,-0.0421 0.201454,-0.0643 0.301572,-0.0647 z m -0.599704,2.55643 1.329742,2.0896 2.474463,0.10679 -1.329769,-2.08945 z m -1.304264,2.25888 1.329902,2.08944 2.474462,0.10695 -1.329769,-2.0896 z m -1.304078,2.25888 1.329875,2.08944 2.47433,0.10692 -1.329769,-2.08944 z m -1.304237,2.25885 1.329743,2.08945 2.474595,0.10694 -1.329743,-2.0896 z m -1.304105,2.25888 1.329901,2.08945 2.474304,0.10694 -1.329742,-2.08947 z m -1.304105,2.25886 1.329611,2.08944 2.474595,0.10694 -1.329743,-2.08957 z m -1.304237,2.25875 1.329902,2.08957 2.474462,0.10679 -1.329901,-2.08929 z m -3.5492,0.95705 -0.533797,0.92453 c 0.253788,0.16785 0.507021,0.33319 0.760121,0.49739 0.03151,0.0204 0.06308,0.041 0.09459,0.0614 0.257836,0.16684 0.515567,0.33205 0.773615,0.49538 0,0 0.0026,0.003 0.004,0.003 1.635416,1.03503 3.283691,2.0016 5.051822,2.92569 0,0 0,0 0.0026,0 0.02408,0.0124 0.04834,0.0251 0.07239,0.0375 0.140229,0.0731 0.281199,0.14576 0.422989,0.21831 0.05202,0.0266 0.104404,0.0533 0.15666,0.0798 0.131048,0.0666 0.26281,0.13303 0.395314,0.19923 0.03535,0.0177 0.07051,0.0353 0.105939,0.0529 0.17518,0.0871 0.351287,0.17399 0.529219,0.26046 l 0.533797,-0.92454 c -0.247385,-0.12049 -0.493262,-0.24249 -0.738478,-0.36523 -0.06159,-0.0308 -0.123058,-0.0616 -0.184494,-0.0926 -0.243946,-0.12293 -0.487257,-0.24675 -0.728874,-0.37182 -1.780646,-0.92181 -3.493717,-1.90172 -5.100267,-2.92841 -0.129276,-0.0826 -0.25781,-0.1655 -0.385737,-0.24868 -0.01799,-0.0116 -0.03604,-0.0236 -0.05403,-0.0353 -0.113718,-0.0741 -0.226722,-0.14846 -0.339302,-0.22302 -0.05506,-0.0365 -0.109776,-0.0732 -0.164544,-0.1098 -0.08128,-0.0543 -0.162613,-0.10858 -0.243258,-0.16312 -0.143907,-0.0974 -0.287126,-0.1951 -0.428996,-0.29329 z m 2.604876,6.89459 c -6.439403,10.81029 -12.134321,21.76002 -17.582357,33.06757 -2.590456,5.41986 -3.104621,6.54198 -4.307178,4.9208 -0.245878,1.53469 0.685376,2.92603 1.268254,3.65887 6.526635,-14.10504 13.709835,-27.71989 21.215588,-41.3041 z m -5.611707,42.61363 c -0.03553,0.0114 -0.03141,0.0188 -0.0026,0.006 0,-0.003 0,-0.004 0.0026,-0.006 z m 9.271582,0.91276 c -0.03665,0 -0.01852,0.0156 0.01826,0 z" />
  </g>
</svg>
