<?xml version="1.0" encoding="UTF-8" standalone="no"?>
<svg
   xmlns:dc="http://purl.org/dc/elements/1.1/"
   xmlns:cc="http://creativecommons.org/ns#"
   xmlns:rdf="http://www.w3.org/1999/02/22-rdf-syntax-ns#"
   xmlns:svg="http://www.w3.org/2000/svg"
   xmlns="http://www.w3.org/2000/svg"
   xmlns:sodipodi="http://sodipodi.sourceforge.net/DTD/sodipodi-0.dtd"
   xmlns:inkscape="http://www.inkscape.org/namespaces/inkscape"
   width="1200"
   height="1200"
   viewBox="0 0 1200 1200"
   version="1.1"
   id="svg10"
   sodipodi:docname="logo.svg"
   inkscape:export-filename="/home/hackan/Workspace/blake2signer/logo.png"
   inkscape:export-xdpi="171.36"
   inkscape:export-ydpi="171.36"
   inkscape:version="1.0.1 (3bc2e813f5, 2020-09-07)">
  <title
     id="title836">Blake2Signer Logo</title>
  <metadata
     id="metadata16">
    <rdf:RDF>
      <cc:Work
         rdf:about="">
        <dc:format>image/svg+xml</dc:format>
        <dc:type
           rdf:resource="http://purl.org/dc/dcmitype/StillImage" />
        <dc:title>Blake2Signer Logo</dc:title>
        <cc:license
           rdf:resource="http://creativecommons.org/licenses/by-sa/4.0/" />
        <dc:creator>
          <cc:Agent>
            <dc:title>HacKan</dc:title>
          </cc:Agent>
        </dc:creator>
      </cc:Work>
      <cc:License
         rdf:about="http://creativecommons.org/licenses/by-sa/4.0/">
        <cc:permits
           rdf:resource="http://creativecommons.org/ns#Reproduction" />
        <cc:permits
           rdf:resource="http://creativecommons.org/ns#Distribution" />
        <cc:requires
           rdf:resource="http://creativecommons.org/ns#Notice" />
        <cc:requires
           rdf:resource="http://creativecommons.org/ns#Attribution" />
        <cc:permits
           rdf:resource="http://creativecommons.org/ns#DerivativeWorks" />
        <cc:requires
           rdf:resource="http://creativecommons.org/ns#ShareAlike" />
      </cc:License>
    </rdf:RDF>
  </metadata>
  <defs
     id="defs14" />
  <sodipodi:namedview
     pagecolor="#ffffff"
     bordercolor="#666666"
     borderopacity="1"
     objecttolerance="10"
     gridtolerance="10"
     guidetolerance="10"
     inkscape:pageopacity="0"
     inkscape:pageshadow="2"
     inkscape:window-width="1920"
     inkscape:window-height="1016"
     id="namedview12"
     showgrid="false"
     inkscape:zoom="0.35355339"
     inkscape:cx="127.64893"
     inkscape:cy="854.45103"
     inkscape:window-x="0"
     inkscape:window-y="0"
     inkscape:window-maximized="1"
     inkscape:current-layer="svg10"
     inkscape:document-rotation="0" />
  <g
     transform="translate(600 600) scale(0.69 0.69) rotate(-90) translate(-600 -600)"
     style="fill:#000000"
     id="g8"
     inkscape:export-xdpi="171.36"
     inkscape:export-ydpi="171.36">
    <svg
       fill="#000000"
       version="1.1"
       x="0px"
       y="0px"
       viewBox="0 0 150 150"
       xml:space="preserve"
       id="svg6"
       style="enable-background:new 0 0 150 150;"><path
         d="M13.9,27.8L13.9,27.8c0.4,0.6,1,1.2,1.6,1.8L89,103.2l0.1-0.1L13.9,27.8z"
         id="path2" /><path
         d="M138.5,126L138.5,126c0-0.1,0-0.2-0.1-0.3c-0.1-0.2-0.1-0.3-0.2-0.4c-0.1-0.1-0.2-0.2-0.3-0.3l-3.6-3.6l-8.8-8.8l-8-8  l-6.3-6.3l2.7-2.7c0.8-0.8,0.8-2.1,0-2.9l-5.7-5.7c-0.4-0.4-0.9-0.6-1.5-0.6c-0.5,0-1.1,0.2-1.5,0.6l-4.9,5L17.1,8.6  C16.6,8.2,16,8,15.4,8s-1.2,0.4-1.5,0.9c-2.5,3.6-5.3,11.6-0.3,18.6c0,0,0,0.1,0.1,0.1c0,0.1,0.1,0.1,0.1,0.2c0,0,0,0,0.1,0.1  l75.2,75.2l-0.1,0.1l-5,5c-0.8,0.8-0.8,2.1,0,2.9l5.7,5.7c0.4,0.4,0.9,0.6,1.5,0.6c0.5,0,1.1-0.2,1.5-0.6l2.7-2.7l0,0l1.3,1.3l0,0  l8.8,8.8l8,8l0,0l8.6,8.6c0.4,0.4,0.9,0.6,1.5,0.6c0.5,0,1-0.2,1.4-0.6l13-13c0.1-0.1,0.2-0.2,0.3-0.3c0.1-0.1,0.2-0.3,0.2-0.4  s0.1-0.2,0.1-0.3l0,0c0-0.1,0-0.3,0-0.4S138.6,126.1,138.5,126z M31.7,31.7C25.1,25,20.1,22.2,16.6,23c-0.2,0.1-0.5,0.1-0.7,0.2  c-1.7-3.8-0.8-7.5,0.2-9.8l81.3,81.3L96.1,96L31.7,31.7z M93.9,109.8L93.9,109.8l-2.6,2.6l-2.8-2.8l18.3-18.3l2.8,2.8l-2.7,2.7  l-7.7,7.7l-0.1,0.1L93.9,109.8z M111.2,103.9h-5.6l2.8-2.8L111.2,103.9z M98.2,111.2l3.1-3.1h13.9l3.8,3.8H98.9L98.2,111.2z   M103.1,116h20.2l4.7,4.7h-20.2L103.1,116z M123.5,136.5l-3.7-3.7h7.4L123.5,136.5z M131.3,128.7h-15.6l-3.8-3.8h20.2l1.5,1.5  L131.3,128.7z"
         id="path4" /></svg>
  </g>
  <g
     inkscape:groupmode="layer"
     id="layer1"
     inkscape:label="Layer 1">
    <g
       style="fill:#000000"
       id="g1553"
       transform="matrix(1.2195122,0,0,1.2195122,30.797379,305.45807)"
       inkscape:export-xdpi="171.36"
       inkscape:export-ydpi="171.36">
      <path
         fill-rule="evenodd"
         clip-rule="evenodd"
         fill="#000000"
         d="m 584.55088,501.64385 -2.1896,-1.57142 c -0.91233,-0.52381 -1.82466,-1.04761 -2.91946,-1.57142 -2.1896,-1.22222 -4.74413,-2.61903 -7.66358,-3.66666 -5.83893,-2.61903 -13.50251,-4.88887 -22.62584,-6.28568 -9.12331,-1.39682 -19.70636,-1.57143 -31.01928,-0.17461 -5.65646,0.69842 -11.49538,2.09524 -17.51677,3.84126 -1.45972,0.52381 -2.91946,1.04761 -4.56165,1.57142 -1.45973,0.69842 -2.91947,1.39682 -4.56166,2.09524 -1.45974,0.6984 -2.91947,1.74602 -4.37919,2.44442 -1.45973,0.87302 -2.91947,2.09524 -4.3792,3.31745 -4.92659,4.53966 -8.57592,9.25393 -12.40772,13.96819 -3.83178,4.71428 -7.66358,9.42854 -11.8603,13.4444 -2.00714,1.92062 -4.19674,3.66665 -5.83893,4.36505 -0.18247,-0.34919 -0.54739,-0.873 -0.91233,-1.39681 -0.18247,-0.34921 -0.54739,-1.04762 -0.72987,-1.57143 l -1.09479,-2.09522 c -1.45974,-3.31745 -3.46686,-6.63489 -5.474,-9.60313 -4.19672,-6.1111 -9.48825,-11.69837 -15.69211,-16.58724 -3.28439,-2.44444 -6.75125,-4.71426 -10.76551,-6.63489 -4.01426,-1.92063 -8.57592,-3.49205 -14.23237,-4.01586 -2.91947,-0.1746 -6.0214,-0.1746 -9.30579,0.69841 -3.2844,0.87301 -6.56879,2.44444 -9.12332,4.71427 -1.27726,1.04761 -2.37206,2.26983 -3.28439,3.31744 l -1.6422,1.92063 -3.28439,3.84125 c -4.19673,5.06347 -8.39346,9.95234 -12.59018,13.7936 -0.5474,0.52381 -1.09479,1.04761 -1.6422,1.39682 -0.18246,-0.17461 -0.18246,-0.34921 -0.36493,-0.52381 l -0.72987,-0.69841 -2.73699,-2.61904 -1.45973,-1.22222 c -0.54741,-0.3492 -0.91234,-0.6984 -1.45974,-1.04761 l -2.91945,-1.92063 c -2.00714,-1.22221 -4.19674,-2.26983 -6.20386,-3.31744 -8.75839,-3.66666 -18.06417,-4.53966 -25.72776,-4.19046 -7.84605,0.3492 -14.96224,1.57142 -21.53103,3.14285 -12.9551,2.96824 -24.08555,6.80948 -34.1212,10.12693 -10.03566,3.31745 -19.15897,5.93649 -27.18749,7.50791 -8.02852,1.74603 -15.14471,2.26983 -21.1661,2.09522 -1.45973,0 -18.9765,-4.53966 -20.25377,-4.71426 0,0 2.51378,-4.43834 0,0 0,0.87302 0.18247,1.74602 0.36493,2.44444 0.32761,0.77335 0.33567,0.78073 0.72987,1.39682 1.0948,2.09523 3.2844,3.49205 5.65647,4.01585 2.73699,1.57143 6.56878,3.66665 11.49537,5.06347 6.56879,2.09523 15.14471,3.49205 24.63296,3.31745 9.48825,0 20.25376,-1.22222 31.20175,-3.14285 10.94798,-1.74602 22.62582,-4.36505 34.12121,-5.93648 11.49537,-1.74602 22.99075,-2.09523 30.10694,0.87301 0.91233,0.52381 1.82467,0.69842 2.55454,1.22223 0.72985,0.5238 1.82466,1.04761 2.18958,1.57142 0.18248,0.1746 0.54741,0.5238 0.91233,0.6984 l 0.18248,0.17461 c 0,0 0.18246,0.3492 0.36493,0.3492 l 0.91233,0.87301 1.64219,1.74603 0.18248,0.1746 0.18246,0.1746 c -0.91233,-1.22221 -0.18246,-0.1746 -0.36494,-0.3492 l 0.91233,1.04762 0.91234,1.04761 1.0948,1.04761 1.27727,1.04762 c 0.54739,0.3492 1.09479,0.6984 1.45972,1.04761 0.91234,0.69842 2.1896,1.22222 3.46687,1.74603 2.55452,1.04761 5.65645,1.39682 8.21098,1.22221 5.29153,-0.34921 8.75839,-2.09523 11.31291,-3.49205 5.10907,-2.96824 7.84606,-5.93648 10.58305,-8.90472 5.29153,-5.76189 9.12332,-11.52376 12.95512,-17.11103 l 2.73699,-4.19047 1.45973,-2.09523 0.18247,-0.3492 c 0,-0.1746 0,-0.1746 0.18246,-0.1746 0.18247,-0.17461 0.72987,-0.17461 1.45973,-0.17461 1.6422,0 4.01426,0.52382 6.56879,1.57143 2.37206,1.04761 4.9266,2.44443 7.48113,4.01585 4.74412,3.31744 9.12331,7.33331 12.77264,12.04757 1.82466,2.26983 3.2844,4.53966 4.74413,6.9841 l 1.09479,2.09522 c 0.5474,0.87302 0.91233,1.74603 1.6422,2.79364 0.72987,0.87302 1.27727,1.74603 2.1896,2.79365 0.72986,0.873 1.82466,1.92063 2.91946,2.79363 1.27726,0.87301 2.73699,1.92063 4.74413,2.44443 0.91233,0.34921 1.82466,0.52381 2.91945,0.69842 1.09481,0.1746 2.00714,0.1746 3.10193,0.1746 4.01426,-0.1746 6.93373,-1.57142 8.94085,-2.79364 4.19674,-2.61904 6.75126,-5.23807 9.12333,-7.8571 4.56165,-5.23808 8.21098,-10.47616 11.67784,-15.36503 3.46687,-4.88886 6.75126,-9.77773 10.03565,-13.61898 2.91947,-3.14284 7.84606,-5.93649 12.77265,-7.85712 4.92659,-1.92062 10.03565,-3.66664 15.14471,-4.53966 10.03565,-2.09522 19.88883,-2.61903 28.28228,-2.09522 2.1896,0 4.19673,0.34919 6.20386,0.6984 2.00713,0.34921 3.83179,0.52381 5.65645,0.87302 1.82466,0.3492 3.46687,0.6984 5.29153,1.04761 1.6422,0.34921 3.10193,0.87301 4.56166,1.39682 2.91946,0.87302 5.47398,1.92063 7.48112,2.79363 1.09479,0.52382 2.1896,0.87302 3.10193,1.22223 0.91233,0.5238 1.64219,0.87301 2.37206,1.39682 2.91947,1.57142 4.37919,2.44443 4.37919,2.44443 l 1.45973,-1.92063 c -0.18246,0 -1.6422,-1.04761 -4.37919,-2.79364 z m -225.34596,21.99991 c -0.36493,0.1746 -0.36493,0 0.36494,-0.1746 -0.18246,0 -0.36494,0 -0.36494,0.1746 z m 92.32798,10.12694 h 0.18247 c -0.36493,0.1746 -0.54739,0 -0.18247,0 z"
         id="path1539"
         sodipodi:nodetypes="ccccsscccccssccccccscsccccccsccccccccsccccccccccccsccccccccccccccsccccccccscccccccccscccscsccsscccccccccccscs"
         style="stroke-width:1.78492" />
    </g>
  </g>
</svg>
