<?xml version="1.0" encoding="UTF-8" standalone="no"?>
<svg
   xmlns:dc="http://purl.org/dc/elements/1.1/"
   xmlns:cc="http://creativecommons.org/ns#"
   xmlns:rdf="http://www.w3.org/1999/02/22-rdf-syntax-ns#"
   xmlns:svg="http://www.w3.org/2000/svg"
   xmlns="http://www.w3.org/2000/svg"
   xmlns:sodipodi="http://sodipodi.sourceforge.net/DTD/sodipodi-0.dtd"
   xmlns:inkscape="http://www.inkscape.org/namespaces/inkscape"
   width="79.375mm"
   height="79.374992mm"
   viewBox="0 0 79.375 79.374992"
   version="1.1"
   id="svg873"
   inkscape:version="1.0.1 (3bc2e813f5, 2020-09-07)"
   sodipodi:docname="logo_d_dark.svg">
  <defs
     id="defs867" />
  <sodipodi:namedview
     id="base"
     pagecolor="#ffffff"
     bordercolor="#666666"
     borderopacity="1.0"
     inkscape:pageopacity="0.0"
     inkscape:pageshadow="2"
     inkscape:zoom="1.4024284"
     inkscape:cx="18.889802"
     inkscape:cy="125.23134"
     inkscape:document-units="mm"
     inkscape:current-layer="layer1"
     inkscape:document-rotation="0"
     showgrid="false"
     inkscape:window-width="1920"
     inkscape:window-height="1043"
     inkscape:window-x="0"
     inkscape:window-y="0"
     inkscape:window-maximized="1" />
  <metadata
     id="metadata870">
    <rdf:RDF>
      <cc:Work
         rdf:about="">
        <dc:format>image/svg+xml</dc:format>
        <dc:type
           rdf:resource="http://purl.org/dc/dcmitype/StillImage" />
        <dc:title></dc:title>
      </cc:Work>
    </rdf:RDF>
  </metadata>
  <g
     inkscape:label="Layer 1"
     inkscape:groupmode="layer"
     id="layer1"
     transform="translate(-7.2049578,-167.88564)">
    <path
       id="circle1222"
       style="fill:#1a1a1a;fill-opacity:1;stroke:none;stroke-width:5.67857;stroke-linecap:round;stroke-linejoin:round;stroke-miterlimit:4;stroke-dasharray:none;paint-order:stroke fill markers"
       d="m 46.892457,167.88564 a 39.6875,39.6875 0 0 0 -39.6874992,39.6875 39.6875,39.6875 0 0 0 39.6874992,39.68749 39.6875,39.6875 0 0 0 39.6875,-39.68749 39.6875,39.6875 0 0 0 -39.6875,-39.6875 z m 21.948532,9.85831 c 0.125992,10e-4 0.244896,0.0319 0.349332,0.093 1.683364,1.06293 3.064219,2.40522 4.038513,4.00803 0.03994,0.0399 0.07368,0.12671 0.06718,0.17311 -0.0065,0.0464 0.0333,0.0859 0.02687,0.13229 l -0.02582,0.18604 c -0.0065,0.0464 -0.0195,0.13885 -0.07235,0.19172 -0.0064,0.0464 -0.01328,0.0929 -0.06615,0.14573 -0.05935,0.0993 -0.06547,0.14557 -0.11834,0.19843 -0.05286,0.0529 -0.10577,0.10579 -0.158647,0.15865 l -1.903243,1.90324 -4.652428,4.65243 -4.229716,4.22972 -2.615862,2.61586 c 0.524391,0.48786 1.063186,0.97904 1.625225,1.47743 0.301418,0.30142 0.36957,0.72338 0.151929,0.94102 l -1.550295,1.55081 c -0.108823,0.10883 -0.260619,0.14769 -0.455268,0.11628 -0.162208,-0.0262 -0.367602,-0.12266 -0.518314,-0.27337 -0.703281,-0.62368 -1.353544,-1.21399 -1.971974,-1.78956 l -1.283641,1.19683 c -11.489204,11.43832 -21.989254,23.64887 -32.652801,35.83916 -0.05369,0.0429 -0.110567,0.0783 -0.1695,0.10904 0.38944,0.0846 0.760018,0.1633 0.820624,0.1633 0.551939,0.0143 1.204531,-0.029 1.940448,-0.17158 0.735915,-0.12833 1.57194,-0.34193 2.491838,-0.61289 0.919898,-0.27093 1.939954,-0.58491 3.127457,-0.82732 0.602113,-0.12835 1.254848,-0.22834 1.974041,-0.25683 0.702466,-0.0285 1.555178,0.0431 2.357995,0.34261 0.183981,0.0856 0.384977,0.17094 0.568958,0.27077 l 0.267168,0.15711 c 0.05018,0.0285 0.08367,0.0567 0.133842,0.0853 l 0.13384,0.0998 0.251148,0.21394 0.06666,0.0574 c 0.01672,0.0143 0.01685,0.0281 0.03359,0.0424 0.05018,-0.0285 0.100203,-0.0709 0.150378,-0.11366 0.384686,-0.31375 0.769247,-0.713 1.153936,-1.12657 l 0.301273,-0.3142 0.150378,-0.15658 c 0.08363,-0.0855 0.184193,-0.1852 0.301273,-0.27077 0.234154,-0.18539 0.535067,-0.31369 0.836126,-0.385 0.301056,-0.0713 0.585568,-0.0716 0.853178,-0.0574 0.518483,0.0428 0.936353,0.17129 1.304311,0.32817 0.367959,0.15687 0.685964,0.34192 0.987021,0.54154 0.568663,0.39931 1.053472,0.85585 1.438155,1.35496 0.183978,0.24244 0.36797,0.51351 0.501777,0.78447 l 0.10077,0.17105 c 0.01672,0.0428 0.04994,0.0996 0.06666,0.12814 0.03345,0.0428 0.06699,0.0857 0.08371,0.11422 0.15053,-0.0571 0.350875,-0.19971 0.534853,-0.35658 0.384688,-0.32798 0.736039,-0.71308 1.087271,-1.09813 0.351239,-0.38502 0.685815,-0.7697 1.137398,-1.14049 0.1338,-0.0998 0.267722,-0.19999 0.401527,-0.2713 0.1338,-0.057 0.267721,-0.14242 0.401526,-0.19947 0.150524,-0.057 0.284253,-0.11401 0.41806,-0.17105 0.150522,-0.0428 0.284263,-0.0854 0.418063,-0.12817 0.55194,-0.14258 1.087094,-0.25714 1.605587,-0.31419 1.036971,-0.11409 2.006976,-0.0996 2.843239,0.0146 0.836279,0.11409 1.539081,0.29925 2.074291,0.51316 0.267605,0.0856 0.501571,0.1999 0.702284,0.29972 0.100348,0.0428 0.184054,0.0854 0.267681,0.12817 l 0.200507,0.12866 c 0.25088,0.14261 0.384802,0.22789 0.401523,0.22789 l -0.133839,0.15711 c 0,0 -0.133922,-0.0717 -0.401526,-0.2 -0.0669,-0.0428 -0.133932,-0.0709 -0.217559,-0.11369 -0.08363,-0.0285 -0.18387,-0.0569 -0.284221,-0.0997 -0.183986,-0.0713 -0.41814,-0.15711 -0.685744,-0.22842 -0.133806,-0.0428 -0.267539,-0.0857 -0.418063,-0.11422 -0.167254,-0.0285 -0.317471,-0.0567 -0.484725,-0.0853 -0.167254,-0.0285 -0.334854,-0.0428 -0.518832,-0.0713 -0.183983,-0.0285 -0.367742,-0.0574 -0.568441,-0.0574 -0.769369,-0.0428 -1.672709,-5e-5 -2.592607,0.17105 -0.468316,0.0713 -0.936438,0.21418 -1.388028,0.37106 -0.451583,0.15687 -0.903375,0.38512 -1.170988,0.64182 -0.301051,0.31372 -0.602057,0.71276 -0.91984,1.11207 -0.317775,0.39928 -0.652095,0.82741 -1.070221,1.25521 -0.217435,0.21392 -0.451956,0.42791 -0.836642,0.64183 -0.183975,0.0998 -0.45163,0.21362 -0.819586,0.22788 -0.100351,0 -0.183864,-2.1e-4 -0.284221,-0.0146 -0.100351,-0.0143 -0.184057,-0.0283 -0.267684,-0.0568 -0.183978,-0.0428 -0.317524,-0.12817 -0.434599,-0.19947 -0.100352,-0.0713 -0.200782,-0.15711 -0.267685,-0.22842 -0.08363,-0.0856 -0.133604,-0.15658 -0.200504,-0.22788 -0.0669,-0.0856 -0.100716,-0.15711 -0.150894,-0.22842 l -0.100253,-0.17105 c -0.133803,-0.19965 -0.267343,-0.38513 -0.4346,-0.57049 -0.334504,-0.38505 -0.736129,-0.71298 -1.170987,-0.98394 -0.234156,-0.12835 -0.468313,-0.24257 -0.685745,-0.32813 -0.234156,-0.0856 -0.451501,-0.12817 -0.60203,-0.12817 -0.0669,0 -0.117115,2.2e-4 -0.133842,0.0146 -0.01675,0 -0.01654,0 -0.01654,0.014 l -0.01706,0.0284 -0.133842,0.17103 -0.250629,0.34263 c -0.351232,0.45633 -0.702488,0.92671 -1.187525,1.39732 -0.25088,0.24244 -0.501655,0.48517 -0.969967,0.7276 -0.234157,0.11409 -0.552106,0.25673 -1.037146,0.28525 -0.234153,0.0143 -0.518255,-0.0148 -0.752409,-0.10025 -0.11708,-0.0428 -0.23418,-0.0856 -0.317809,-0.14261 -0.03345,-0.0285 -0.08367,-0.0568 -0.133842,-0.0853 l -0.117306,-0.0858 -0.100253,-0.0853 -0.08371,-0.0858 -0.08372,-0.0858 -0.150379,-0.14211 -0.08371,-0.0713 c -0.01672,0 -0.03359,-0.0289 -0.03359,-0.0289 l -0.01654,-0.014 c -0.03345,-0.0143 -0.06699,-0.0431 -0.08371,-0.0574 -0.03345,-0.0428 -0.133607,-0.0854 -0.200507,-0.12813 -0.0669,-0.0428 -0.150463,-0.057 -0.234093,-0.0998 -0.65229,-0.24244 -1.706337,-0.21392 -2.760038,-0.0713 -1.0537,0.12835 -2.123934,0.34211 -3.127459,0.48472 -1.003525,0.15687 -1.990569,0.25683 -2.860289,0.25683 -0.86972,0.0143 -1.65563,-0.0997 -2.257745,-0.27077 -0.451585,-0.11412 -0.802801,-0.28559 -1.053682,-0.41394 -0.217432,-0.0428 -0.417959,-0.15651 -0.518313,-0.32764 -0.03613,-0.0503 -0.03715,-0.051 -0.06718,-0.11419 -0.01672,-0.0571 -0.03307,-0.1287 -0.03307,-0.2 -0.941941,-1.35639 -1.997051,-4.37041 -0.11317,-7.00783 0,0 4.7e-5,-0.0377 0.03772,-0.0377 0,-0.0377 0.03772,-0.0378 0.03772,-0.0754 l 0.03772,-0.0377 C 30.0883,217.76156 39.243055,208.16309 48.53265,198.46476 l 4.09329,-4.13928 c -0.609473,-0.65322 -1.228331,-1.33509 -1.879989,-2.06861 -0.301422,-0.30143 -0.369573,-0.72339 -0.151929,-0.94103 l 1.55081,-1.55081 c 0.10882,-0.10882 0.260622,-0.14717 0.455271,-0.11575 0.162208,0.0262 0.367086,0.12214 0.517798,0.27285 0.490272,0.54396 0.977032,1.07604 1.465027,1.60042 1.539488,-1.5395 3.079345,-3.07883 4.618839,-4.61833 l 4.229716,-4.22971 4.546492,-4.54701 c 0.211476,-0.21147 0.456446,-0.33635 0.734838,-0.37517 0.04319,-0.006 0.08616,-0.009 0.128159,-0.008 z m -1.069702,2.35903 0.750342,2.38435 2.384351,0.75035 -0.750342,-2.38384 z m -1.860868,1.86139 0.75034,2.38435 2.383835,0.75034 -0.750343,-2.38435 z m -1.861386,1.86138 0.750342,2.38384 2.384351,0.75085 -0.750858,-2.38435 z m -1.861386,1.86087 0.750342,2.38435 2.384351,0.75034 -0.750342,-2.38383 z m -1.861383,1.86138 0.750858,2.38436 2.383832,0.75034 -0.75034,-2.38384 z m -1.860871,1.86139 0.750343,2.38383 2.383835,0.75086 -0.750343,-2.38435 z m -1.861383,1.86087 0.750342,2.38435 2.384349,0.75034 -0.750859,-2.38383 z m -3.709853,0.006 -0.761709,0.76171 c 0.203552,0.22988 0.407514,0.45699 0.611331,0.68316 0.0254,0.0282 0.05057,0.0566 0.07596,0.0847 0.207746,0.22999 0.415891,0.45811 0.624769,0.68471 0.0011,10e-4 0.0021,0.002 0.0031,0.004 1.323814,1.43605 2.678298,2.80874 4.16047,4.17132 l 0.0011,0.001 c 0.02011,0.0185 0.0403,0.0368 0.06046,0.0553 0.11761,0.10784 0.236268,0.21573 0.355534,0.32349 0.04377,0.0395 0.08778,0.0793 0.131776,0.11885 0.11035,0.0992 0.22144,0.198 0.333312,0.29715 0.02982,0.0264 0.05947,0.0532 0.0894,0.0796 0.147995,0.13067 0.297188,0.26147 0.448032,0.39222 v -5.3e-4 l 0.761712,-0.76171 c -0.209661,-0.18206 -0.417277,-0.3651 -0.62425,-0.5488 -0.05197,-0.0461 -0.104267,-0.0923 -0.156064,-0.1385 -0.205674,-0.18354 -0.410562,-0.36739 -0.6134,-0.55242 -1.494949,-1.36364 -2.908601,-2.76644 -4.206462,-4.18682 -0.104423,-0.11428 -0.208124,-0.22865 -0.311092,-0.34313 -0.0145,-0.0161 -0.02893,-0.0324 -0.04341,-0.0486 -0.09149,-0.10195 -0.182081,-0.20382 -0.272336,-0.30592 -0.04413,-0.05 -0.08795,-0.10037 -0.131773,-0.15038 -0.06504,-0.0741 -0.130466,-0.148 -0.194821,-0.22221 -0.114845,-0.13257 -0.228938,-0.26514 -0.341582,-0.39791 z m 0.738458,7.4011 c -9.100421,8.85565 -17.511244,18.04143 -25.775171,27.6407 -3.940697,4.6065 -4.735121,5.56596 -5.483903,3.67162 -0.640516,1.43174 -0.09617,3.03136 0.280602,3.89795 10.04599,-12.04427 20.604,-23.43965 31.468364,-34.7207 z m -17.139523,36.68148 c -0.02458,0.009 -0.02865,0.0151 -0.0041,0.005 0,-0.003 0.003,-0.003 0.0041,-0.005 z m 8.458917,0.83148 c -0.03345,0 -0.01691,0.0143 0.01654,0 z" />
  </g>
</svg>
