<?xml version="1.0" encoding="UTF-8" standalone="no"?>
<svg
   xmlns:dc="http://purl.org/dc/elements/1.1/"
   xmlns:cc="http://creativecommons.org/ns#"
   xmlns:rdf="http://www.w3.org/1999/02/22-rdf-syntax-ns#"
   xmlns:svg="http://www.w3.org/2000/svg"
   xmlns="http://www.w3.org/2000/svg"
   xmlns:sodipodi="http://sodipodi.sourceforge.net/DTD/sodipodi-0.dtd"
   xmlns:inkscape="http://www.inkscape.org/namespaces/inkscape"
   width="207.87706mm"
   height="74.974487mm"
   viewBox="0 0 207.87705 74.974489"
   version="1.1"
   id="svg873"
   inkscape:version="1.0.2 (e86c870879, 2021-01-15)"
   sodipodi:docname="title.svg"
   inkscape:export-filename="/home/hackan/Workspace/blake2signer/docs/img/title.png"
   inkscape:export-xdpi="171.36"
   inkscape:export-ydpi="171.36">
  <title
     id="title874">Blake2Signer Title</title>
  <defs
     id="defs867" />
  <sodipodi:namedview
     id="base"
     pagecolor="#ffffff"
     bordercolor="#666666"
     borderopacity="1.0"
     inkscape:pageopacity="0.0"
     inkscape:pageshadow="2"
     inkscape:zoom="1.4142136"
     inkscape:cx="429.03976"
     inkscape:cy="150.17433"
     inkscape:document-units="mm"
     inkscape:current-layer="layer4"
     inkscape:document-rotation="0"
     showgrid="false"
     inkscape:window-width="1920"
     inkscape:window-height="1016"
     inkscape:window-x="0"
     inkscape:window-y="0"
     inkscape:window-maximized="1"
     inkscape:lockguides="false"
     showguides="true">
    <inkscape:grid
       type="xygrid"
       id="grid902"
       originx="-11.222968"
       originy="-69.242771" />
  </sodipodi:namedview>
  <metadata
     id="metadata870">
    <rdf:RDF>
      <cc:Work
         rdf:about="">
        <dc:format>image/svg+xml</dc:format>
        <dc:type
           rdf:resource="http://purl.org/dc/dcmitype/StillImage" />
        <dc:title>Blake2Signer Title</dc:title>
        <cc:license
           rdf:resource="http://creativecommons.org/licenses/by-sa/4.0/" />
        <dc:description>Font: Bilbo https://fontesk.com/bilbo-font/</dc:description>
        <dc:creator>
          <cc:Agent>
            <dc:title>Erus</dc:title>
          </cc:Agent>
        </dc:creator>
        <dc:publisher>
          <cc:Agent>
            <dc:title>HacKan</dc:title>
          </cc:Agent>
        </dc:publisher>
      </cc:Work>
      <cc:License
         rdf:about="http://creativecommons.org/licenses/by-sa/4.0/">
        <cc:permits
           rdf:resource="http://creativecommons.org/ns#Reproduction" />
        <cc:permits
           rdf:resource="http://creativecommons.org/ns#Distribution" />
        <cc:requires
           rdf:resource="http://creativecommons.org/ns#Notice" />
        <cc:requires
           rdf:resource="http://creativecommons.org/ns#Attribution" />
        <cc:permits
           rdf:resource="http://creativecommons.org/ns#DerivativeWorks" />
        <cc:requires
           rdf:resource="http://creativecommons.org/ns#ShareAlike" />
      </cc:License>
    </rdf:RDF>
  </metadata>
  <g
     inkscape:groupmode="layer"
     id="layer4"
     inkscape:label="Main"
     style="display:inline;opacity:0.998"
     transform="translate(-11.222975,-69.242757)">
    <g
       id="g854"
       transform="matrix(2.52,0,0,2.52,-6.7673857,-87.581079)"
       inkscape:export-xdpi="171.36"
       inkscape:export-ydpi="171.36">
      <path
         id="path4"
         style="fill:#1a1a1a;stroke-width:0.140988"
         d="m 58.603015,70.710066 c -0.04073,0.04072 -0.09752,0.05523 -0.170357,0.04347 -0.0607,-0.0098 -0.137463,-0.04588 -0.193859,-0.102276 -0.263166,-0.233377 -0.506433,-0.454289 -0.737847,-0.669663 l -0.480372,0.447838 c -4.299213,4.280176 -8.228235,8.849437 -12.218495,13.410997 -0.07049,0.05639 -0.155057,0.08459 -0.239647,0.08459 -0.08459,0 -0.169179,-0.05639 -0.211476,-0.126885 -0.35247,-0.507561 -0.747239,-1.635455 -0.0423,-2.622372 0,0 -1.2e-5,-0.01408 0.01409,-0.01409 0,-0.01409 0.01409,-0.01411 0.01409,-0.02821 l 0.01412,-0.01412 C 47.519739,77.20621 50.94551,73.614489 54.421643,69.985407 l 1.531729,-1.549034 c -0.228063,-0.244432 -0.459664,-0.499567 -0.703512,-0.77405 -0.112791,-0.112792 -0.13824,-0.270592 -0.0568,-0.352033 l 0.580261,-0.580261 c 0.04073,-0.04072 0.09749,-0.05519 0.170323,-0.04344 0.0607,0.0098 0.137463,0.04581 0.193858,0.102208 0.183458,0.20355 0.365604,0.402592 0.54821,0.598812 0.576072,-0.576074 1.152146,-1.152145 1.728219,-1.728217 l 1.582712,-1.582713 1.701394,-1.701394 c 0.07913,-0.07913 0.170781,-0.125927 0.274954,-0.140454 0.06465,-0.009 0.126617,0.0012 0.178724,0.03169 0.629909,0.397744 1.1466,0.900139 1.511178,1.499902 0.01495,0.01494 0.02744,0.04726 0.02503,0.06462 -0.0024,0.01736 0.01253,0.03227 0.01011,0.04963 l -0.0097,0.06947 c -0.0024,0.01736 -0.0073,0.0521 -0.02703,0.07189 -0.0024,0.01736 -0.0049,0.03469 -0.02464,0.05448 -0.02221,0.03715 -0.02463,0.05453 -0.04441,0.07431 -0.01978,0.01978 -0.03954,0.03954 -0.05933,0.05933 l -0.712233,0.712233 -1.740954,1.740956 -1.58268,1.582678 -0.978879,0.978879 c 0.196226,0.182557 0.397983,0.366353 0.608296,0.552849 0.11279,0.112791 0.138272,0.270624 0.05683,0.352068 z m -0.254256,-0.549422 0.28506,-0.285059 c -0.07845,-0.06812 -0.156212,-0.13668 -0.233662,-0.205419 -0.01945,-0.01726 -0.03887,-0.03452 -0.05825,-0.05182 -0.07696,-0.06869 -0.153607,-0.137568 -0.229508,-0.206802 -0.559404,-0.510271 -1.088474,-1.035151 -1.574129,-1.566652 -0.03908,-0.04277 -0.07783,-0.08557 -0.116363,-0.128409 -0.0054,-0.0061 -0.01085,-0.01209 -0.01627,-0.01814 -0.03423,-0.03815 -0.06823,-0.07632 -0.102,-0.11453 -0.01652,-0.0187 -0.03289,-0.03742 -0.04929,-0.05614 -0.02434,-0.02774 -0.04868,-0.05551 -0.07276,-0.08328 -0.04297,-0.0496 -0.0857,-0.09922 -0.127855,-0.148898 l -0.285059,0.285059 c 0.07617,0.08602 0.152374,0.171077 0.228643,0.25571 0.0095,0.01054 0.01901,0.02112 0.02852,0.03163 0.07774,0.08606 0.155639,0.171501 0.2338,0.256297 3.84e-4,4.19e-4 7.5e-4,8.25e-4 0.0011,0.0013 0.495367,0.537363 1.002129,1.051036 1.556752,1.560907 1.51e-4,1.51e-4 3.21e-4,2.5e-4 4.52e-4,3.81e-4 0.0075,0.0069 0.01516,0.01385 0.0227,0.02077 0.04401,0.04036 0.08835,0.08068 0.132977,0.121002 0.01638,0.0148 0.03286,0.02961 0.04932,0.04441 0.04129,0.0371 0.08288,0.07421 0.12474,0.111311 0.01116,0.0099 0.02227,0.01977 0.03347,0.02966 0.05538,0.0489 0.111109,0.09779 0.167554,0.146717 z M 44.737985,83.240549 c 3.759173,-4.506989 7.709926,-8.771015 11.77533,-12.992338 l -0.183268,-0.183268 c -3.405343,3.31375 -6.552732,6.751099 -9.645064,10.343109 -1.474593,1.723732 -1.771851,2.082798 -2.052042,1.373937 -0.239679,0.535753 -0.03594,1.134286 0.105044,1.45856 z m 13.876867,-14.774273 -0.280836,-0.892075 -0.89211,-0.280872 0.280836,0.892144 z m 0.696453,-0.696452 -0.280804,-0.892108 -0.892144,-0.280839 0.280802,0.892111 z m 0.69645,-0.69645 -0.280802,-0.892111 -0.892147,-0.280836 0.280872,0.89211 z m 0.696486,-0.696487 -0.280804,-0.892108 -0.892142,-0.280839 0.2808,0.892111 z m 0.696452,-0.696451 -0.280804,-0.892109 -0.892144,-0.280838 0.280872,0.89211 z m 0.696484,-0.696485 -0.280804,-0.892109 -0.892142,-0.280838 0.280835,0.892145 z m 0.696453,-0.696452 -0.280805,-0.892108 -0.892142,-0.280839 0.280835,0.892146 z"
         sodipodi:nodetypes="ssccccsccccccccsssccscssccccsccscccccccsccscsssccccccccsccccscssscccccccccccccccccccccccccccccccccccccccccc"
         inkscape:export-xdpi="171.36"
         inkscape:export-ydpi="171.36" />
      <path
         fill-rule="evenodd"
         clip-rule="evenodd"
         fill="#000000"
         d="m 54.642964,83.12043 -0.05815,-0.04803 c -0.02423,-0.01601 -0.04846,-0.03202 -0.07753,-0.04802 -0.05815,-0.03736 -0.125987,-0.08005 -0.203516,-0.112064 -0.155057,-0.08004 -0.35857,-0.149416 -0.600852,-0.192106 -0.242276,-0.04269 -0.523321,-0.04803 -0.823746,-0.0053 -0.150214,0.02134 -0.305272,0.06404 -0.465177,0.1174 -0.03877,0.01601 -0.07753,0.03202 -0.121137,0.04802 -0.03877,0.02135 -0.07753,0.04269 -0.121139,0.06404 -0.03877,0.02134 -0.07753,0.05336 -0.116294,0.07471 -0.03877,0.02669 -0.07753,0.06404 -0.116295,0.10139 -0.13083,0.138745 -0.227741,0.282825 -0.3295,0.426905 -0.101756,0.144081 -0.203513,0.288161 -0.314963,0.410896 -0.0533,0.0587 -0.111446,0.112062 -0.155057,0.133407 -0.0048,-0.01067 -0.01454,-0.02668 -0.02423,-0.04269 -0.0048,-0.01067 -0.01453,-0.03202 -0.01938,-0.04803 l -0.02907,-0.06403 c -0.03877,-0.101391 -0.09207,-0.202782 -0.145367,-0.293499 -0.111449,-0.186769 -0.25197,-0.357532 -0.41672,-0.506948 -0.08722,-0.07471 -0.179286,-0.14408 -0.285888,-0.202781 -0.106603,-0.0587 -0.227743,-0.106725 -0.377955,-0.122733 -0.07753,-0.0053 -0.159905,-0.0053 -0.247125,0.02134 -0.08722,0.02668 -0.174441,0.07471 -0.242279,0.14408 -0.03392,0.03202 -0.06299,0.06937 -0.08722,0.101389 l -0.04361,0.0587 -0.08722,0.117398 c -0.111447,0.154753 -0.222896,0.304169 -0.334344,0.421569 -0.01453,0.01601 -0.02908,0.03202 -0.0436,0.04269 -0.0048,-0.0053 -0.0048,-0.01067 -0.0097,-0.01601 l -0.01938,-0.02134 -0.07268,-0.08004 -0.03877,-0.03736 c -0.01454,-0.01067 -0.02423,-0.02134 -0.03877,-0.03202 l -0.07753,-0.0587 c -0.0533,-0.03736 -0.111448,-0.06937 -0.16475,-0.101391 -0.232587,-0.112062 -0.479711,-0.138744 -0.683225,-0.12807 -0.208361,0.01067 -0.397338,0.04802 -0.571779,0.09605 -0.344035,0.09072 -0.639615,0.208117 -0.906122,0.309505 -0.266506,0.101391 -0.508786,0.181437 -0.72199,0.229462 -0.213206,0.05336 -0.402184,0.06938 -0.562087,0.06404 -0.03877,0 -0.50394,-0.138745 -0.53786,-0.144081 0,0 0.06676,-0.135647 0,0 0,0.02668 0.0048,0.05336 0.0097,0.07471 0.0087,0.02363 0.0089,0.02386 0.01938,0.04269 0.02907,0.06404 0.08722,0.106726 0.150213,0.122735 0.07268,0.04803 0.174441,0.112062 0.305271,0.154754 0.174441,0.06404 0.402183,0.106726 0.654153,0.101388 0.25197,0 0.537858,-0.03736 0.828593,-0.09605 0.290735,-0.05336 0.600851,-0.133407 0.906123,-0.181435 0.305271,-0.05336 0.610542,-0.06404 0.799519,0.02668 0.02423,0.01601 0.04846,0.02134 0.06784,0.03736 0.01938,0.016 0.04846,0.03202 0.05815,0.04802 0.0048,0.0053 0.01454,0.01601 0.02423,0.02134 l 0.0048,0.0053 c 0,0 0.0048,0.01067 0.0097,0.01067 l 0.02423,0.02669 0.0436,0.05336 0.0048,0.0053 0.0048,0.0053 c -0.02423,-0.03736 -0.0048,-0.0053 -0.0097,-0.01067 l 0.02423,0.03202 0.02423,0.03202 0.02908,0.03202 0.03392,0.03202 c 0.01454,0.01067 0.02908,0.02134 0.03877,0.03202 0.02423,0.02135 0.05815,0.03735 0.09207,0.05336 0.06784,0.03202 0.150213,0.04269 0.218051,0.03735 0.140522,-0.01067 0.232588,-0.06404 0.300425,-0.106726 0.135677,-0.09072 0.208361,-0.181434 0.281044,-0.272151 0.140522,-0.176099 0.242279,-0.352197 0.344036,-0.522958 l 0.07268,-0.128074 0.03877,-0.06404 0.0048,-0.01067 c 0,-0.0053 0,-0.0053 0.0048,-0.0053 0.0048,-0.0053 0.01938,-0.0053 0.03877,-0.0053 0.04361,0 0.106603,0.01601 0.174441,0.04803 0.06299,0.03202 0.130831,0.07471 0.198668,0.122735 0.125985,0.101391 0.242279,0.224126 0.339191,0.368206 0.04846,0.06937 0.08722,0.138743 0.125985,0.213453 l 0.02908,0.06403 c 0.01454,0.02669 0.02423,0.05336 0.0436,0.08538 0.01938,0.02668 0.03392,0.05336 0.05815,0.08538 0.01938,0.02668 0.04846,0.0587 0.07753,0.08538 0.03392,0.02669 0.07268,0.0587 0.125984,0.07471 0.02423,0.01067 0.04846,0.01601 0.07753,0.02134 0.02908,0.0053 0.0533,0.0053 0.08238,0.0053 0.106602,-0.0053 0.184131,-0.04803 0.237432,-0.08538 0.111449,-0.08004 0.179288,-0.16009 0.24228,-0.240133 0.121138,-0.160089 0.218052,-0.320178 0.310116,-0.469595 0.09207,-0.149418 0.179288,-0.298834 0.266507,-0.416233 0.07753,-0.09605 0.20836,-0.181434 0.33919,-0.240133 0.130832,-0.0587 0.266507,-0.112062 0.402184,-0.138745 0.266506,-0.06404 0.528168,-0.08004 0.751064,-0.06404 0.05815,0 0.111447,0.01067 0.16475,0.02134 0.0533,0.01067 0.101757,0.01601 0.150212,0.02668 0.04846,0.01067 0.09207,0.02134 0.140523,0.03202 0.0436,0.01067 0.08237,0.02669 0.121139,0.04269 0.07753,0.02668 0.145365,0.0587 0.198668,0.08538 0.02908,0.01601 0.05815,0.02669 0.08237,0.03735 0.02422,0.01601 0.0436,0.02669 0.06299,0.04269 0.07753,0.04802 0.116292,0.07471 0.116292,0.07471 l 0.03877,-0.0587 c -0.0048,0 -0.04361,-0.03202 -0.116295,-0.08538 z m -5.984285,0.672373 c -0.0097,0.0053 -0.0097,0 0.0097,-0.0053 -0.0048,0 -0.0097,0 -0.0097,0.0053 z m 2.451862,0.309508 h 0.0048 c -0.0097,0.0053 -0.01454,0 -0.0048,0 z"
         id="path1539"
         sodipodi:nodetypes="ccccsscccccssccccccscsccccccsccccccccsccccccccccccsccccccccccccccsccccccccscccccccccscccscsccsscccccccccccscs"
         style="fill:#1a1a1a;stroke-width:0.0508504"
         inkscape:export-xdpi="171.36"
         inkscape:export-ydpi="171.36" />
    </g>
    <g
       id="g1228"
       style="fill:#ff00ff"
       transform="matrix(0.04520732,0,0,0.04520732,-137.57393,56.369151)"
       inkscape:export-xdpi="171.36"
       inkscape:export-ydpi="171.36" />
    <g
       aria-label="Blake2"
       id="text1238"
       style="font-style:normal;font-variant:normal;font-weight:normal;font-stretch:normal;font-size:49.784px;line-height:22.225px;font-family:Bilbo;-inkscape-font-specification:'Bilbo, Normal';font-variant-ligatures:normal;font-variant-caps:normal;font-variant-numeric:normal;font-variant-east-asian:normal;letter-spacing:0px;word-spacing:0px;fill:#1a1a1a;fill-opacity:1;stroke-width:0.666749">
      <path
         d="m 36.762168,93.885866 q 0,2.638552 -1.692656,4.629912 -1.642872,1.941572 -4.331208,3.235962 -2.688336,1.2446 -5.824728,1.89179 -3.136392,0.59741 -6.023864,0.59741 -1.095248,0 -2.140712,-0.0996 -1.045464,-0.0498 -1.941576,-0.24892 -0.24892,0.59741 -0.945896,0.59741 -0.796544,0 -1.642872,-0.74676 -0.846329,-0.69698 -0.846329,-1.19482 0,-0.44805 0.547625,-0.44805 0.04978,0 0.647192,0.14935 -0.199136,-1.04547 -0.298704,-2.389634 -0.09957,-1.393952 -0.09957,-3.036824 0,-2.837688 0.199136,-6.123433 0.24892,-3.335528 0.647192,-6.671056 0.448056,-3.335528 0.945896,-6.322568 0.49784,-2.98704 0.99568,-5.127752 h -2.638552 q -1.095249,-0.04978 -1.095249,-0.398272 0,-0.24892 0.597409,-0.547624 0.647192,-0.298704 1.49352,-0.298704 h 1.941576 q 0.24892,-1.294384 1.145032,-1.692656 0.896112,-0.398272 1.891792,-0.398272 0.74676,0 0.74676,0.49784 0,0.49784 -0.448056,0.99568 -0.448056,0.49784 -0.547624,0.74676 1.2446,0.09957 3.036824,0.398272 1.792224,0.24892 3.634232,0.796544 1.891792,0.49784 3.48488,1.393952 1.642872,0.896112 2.638552,2.24028 1.045464,1.294384 1.045464,3.186176 0,1.49352 -0.846328,2.837688 -0.796544,1.344168 -2.090928,2.439416 -1.2446,1.095248 -2.638552,1.941576 -1.393952,0.796544 -2.538984,1.294384 0.547624,-0.04978 1.145032,-0.04978 0.647192,-0.04978 1.344168,-0.04978 1.642872,0 3.48488,0.24892 1.842008,0.24892 3.435096,0.896112 1.593088,0.647192 2.588768,1.842008 0.99568,1.145033 0.99568,2.987041 z M 29.593272,78.801313 q -0.49784,-1.593088 -1.941576,-2.688336 -1.393952,-1.095248 -3.23596,-1.792224 -1.842008,-0.696976 -3.684016,-1.095248 -1.792224,-0.398272 -3.036824,-0.547624 h -0.04978 q -0.24892,0.74676 -0.647192,2.290064 -0.348488,1.543304 -0.74676,3.435096 -0.398272,1.891792 -0.796544,3.833368 -0.348488,1.941576 -0.597408,3.534664 -0.24892,1.593088 -0.298704,2.4892 0.04978,0 0.348488,0.04978 0.298704,0 0.796544,0 0.49784,0 2.041144,-0.149352 1.593088,-0.199136 3.584448,-0.696976 1.99136,-0.547624 3.883152,-1.443736 1.941576,-0.945896 3.186176,-2.439416 1.294384,-1.49352 1.294384,-3.684016 0,-0.24892 -0.04978,-0.49784 0,-0.298704 -0.04978,-0.597408 z m 4.878832,15.582393 Q 34.42232,92.69105 33.277288,91.645586 32.18204,90.550337 30.4396,90.002713 q -1.74244,-0.597408 -3.684016,-0.796544 -1.941576,-0.24892 -3.634232,-0.24892 -2.290064,0 -4.380992,0.298704 -2.041144,0.24892 -4.281424,0.597408 -0.04978,0.647192 -0.09957,1.891793 -0.04978,1.194816 -0.04978,2.688336 0,2.140712 0.04978,4.380992 0.09957,2.240278 0.24892,3.783588 1.891792,0.39827 4.380992,0.39827 2.588768,0 5.277104,-0.44806 2.73812,-0.44805 5.028184,-1.44373 2.339848,-0.99568 3.7338,-2.638556 1.443736,-1.692656 1.443736,-4.082288 z"
         style="font-style:normal;font-variant:normal;font-weight:normal;font-stretch:normal;font-size:49.784px;font-family:Bilbo;-inkscape-font-specification:'Bilbo, Normal';font-variant-ligatures:normal;font-variant-caps:normal;font-variant-numeric:normal;font-variant-east-asian:normal;fill:#1a1a1a;fill-opacity:1;stroke-width:0.666749"
         id="path1541" />
      <path
         d="m 51.946219,72.677881 q -1.344168,2.787904 -2.787904,6.322568 -1.393952,3.534664 -2.73812,7.318248 -1.344168,3.783584 -2.439416,7.467601 -1.095248,3.634232 -1.792224,6.671052 -0.04978,0.14936 -0.04978,0.39828 0,0.5974 0.49784,0.5974 0.348488,0 0.99568,-0.34848 0.647192,-0.39828 1.294384,-0.74676 0.647192,-0.398276 0.99568,-0.398276 0.298704,0 0.448056,0.199136 0,0.2987 -0.74676,0.9459 -0.696976,0.5974 -1.74244,1.29438 -1.045464,0.64719 -2.041144,1.14503 -0.945896,0.44806 -1.49352,0.44806 -0.945896,0 -0.945896,-0.89611 0,-0.49784 0.199136,-1.04547 1.443736,-3.932934 2.538984,-7.517382 1.145032,-3.634233 2.24028,-7.268465 1.095248,-3.634232 2.339848,-7.616952 0.09957,-0.348488 0.09957,-0.547624 0.04978,-0.199136 0.04978,-0.348488 0,-0.24892 -0.09957,-0.348488 -0.04978,-0.149352 -0.04978,-0.348488 0,-0.149352 0.149352,-0.597408 0.99568,-3.086608 1.792224,-4.132072 0.846328,-1.095248 2.538984,-1.095248 0.696976,0 0.74676,0.448056 z"
         style="font-style:normal;font-variant:normal;font-weight:normal;font-stretch:normal;font-size:49.784px;font-family:Bilbo;-inkscape-font-specification:'Bilbo, Normal';font-variant-ligatures:normal;font-variant-caps:normal;font-variant-numeric:normal;font-variant-east-asian:normal;fill:#1a1a1a;fill-opacity:1;stroke-width:0.666749"
         id="path1543" />
      <path
         d="m 63.993896,99.710594 q -0.49784,0.448056 -1.543304,1.393956 -1.045464,0.89611 -2.24028,1.69265 -1.194816,0.79655 -2.090928,0.79655 -1.045464,0 -1.2446,-1.2446 0,-0.89612 0.298704,-2.29007 0.298704,-1.443734 0.647192,-2.937254 0.398272,-1.49352 0.696976,-2.4892 -0.74676,0.99568 -1.941576,2.538984 -1.145032,1.543304 -2.538984,3.08661 -1.344168,1.49352 -2.688336,2.53898 -1.344168,1.04547 -2.389632,1.04547 -1.194816,0 -1.194816,-1.79223 0,-1.39395 0.547624,-3.435094 0.547624,-2.090928 1.443736,-4.331208 0.896112,-2.24028 1.941576,-4.181857 1.095248,-1.99136 2.190496,-3.23596 1.145032,-1.2446 2.090928,-1.2446 h 0.149352 l 0.547624,-0.398272 q 0.24892,-0.298704 0.597408,-0.398272 0.398272,-0.09957 0.796544,-0.09957 0.99568,0 2.090928,0.398272 1.095248,0.398272 1.49352,0.398272 0.348488,0 0.49784,-0.398272 0.199136,-0.398272 0.796544,-0.398272 0.696976,0 0.945896,0.298704 0.298704,0.298704 0.298704,0.796544 0,0.696976 -0.398272,1.642872 -0.398272,0.896112 -0.647192,1.49352 -0.04978,0.199136 -0.448056,0.348488 -0.398272,0.09957 -0.49784,0.298704 -0.796544,2.290065 -1.443736,4.679697 -0.647192,2.339848 -0.99568,4.082288 -0.348488,1.742444 -0.348488,2.140714 0,1.2446 0.696976,1.2446 0.597408,0 1.294384,-0.49784 0.696976,-0.54763 1.344168,-1.19482 0.696976,-0.64719 1.145032,-1.14503 0.448056,-0.547624 0.49784,-0.547624 0.09957,0 0.09957,0.199136 0,0.199136 -0.149352,0.597408 -0.149352,0.398272 -0.348488,0.547624 z M 60.708152,86.468049 q -0.49784,0 -1.045464,-0.09957 -0.49784,-0.09957 -1.194816,-0.09957 -0.696976,0 -1.49352,0.199136 -0.448056,0.09957 -1.294384,1.2446 -0.796544,1.095248 -1.792224,2.787904 -0.945896,1.692657 -1.842008,3.634233 -0.846328,1.891792 -1.443736,3.634232 -0.547624,1.74244 -0.547624,2.887472 0,0.84633 0.49784,0.84633 0.49784,0 1.294384,-0.64719 0.846328,-0.69698 1.792224,-1.742444 0.99568,-1.045464 1.842008,-2.090928 0.896112,-1.045464 1.49352,-1.842008 0.647192,-0.846328 0.796544,-1.045464 0.796544,-1.294384 1.543304,-2.787904 0.796544,-1.543305 1.294384,-2.787905 0.49784,-1.294384 0.49784,-1.792224 0,-0.298704 -0.24892,-0.298704 z"
         style="font-style:normal;font-variant:normal;font-weight:normal;font-stretch:normal;font-size:49.784px;font-family:Bilbo;-inkscape-font-specification:'Bilbo, Normal';font-variant-ligatures:normal;font-variant-caps:normal;font-variant-numeric:normal;font-variant-east-asian:normal;fill:#1a1a1a;fill-opacity:1;stroke-width:0.666749"
         id="path1545" />
      <path
         d="m 80.074053,86.119561 q -1.692656,0.99568 -3.23596,2.339848 -1.543304,1.294384 -2.787904,2.638552 -1.194816,1.294385 -1.891792,2.339849 -0.696976,1.045464 -0.696976,1.443736 0,0.99568 0.448056,2.24028 0.49784,1.194816 1.194816,2.439416 0.696976,1.194818 1.393952,2.140708 0.74676,0.9459 1.2446,1.34417 0.945896,0.79655 0.945896,1.29439 0,0.2987 -0.448056,0.2987 -0.846328,0 -1.792224,-0.84633 -0.945896,-0.84633 -1.891792,-2.09093 -0.896112,-1.2446 -1.692656,-2.588764 -0.74676,-1.344168 -1.344168,-2.339848 -0.547624,-1.045464 -0.74676,-1.393952 -0.149352,0.398272 -0.49784,1.49352 -0.348488,1.045464 -0.74676,2.290064 -0.398272,1.2446 -0.696976,2.29006 -0.298704,1.04547 -0.298704,1.39396 0,0.19913 -0.448056,0.69697 -0.448056,0.44806 -0.99568,0.79655 -0.547624,0.39827 -0.945896,0.39827 -0.348488,0 -0.348488,-0.44806 0,-0.19913 0.24892,-0.94589 2.339848,-5.874516 4.132072,-11.798812 1.842008,-5.924297 3.833368,-11.898377 0.199136,-0.597408 0.199136,-0.896112 0,-0.24892 -0.09957,-0.348488 -0.04978,-0.09957 -0.04978,-0.298704 0,-0.199136 0.149352,-0.647192 0.74676,-2.041144 1.294384,-3.186176 0.547624,-1.145032 1.2446,-1.593088 0.74676,-0.448056 1.842008,-0.448056 0.696976,0 0.74676,0.448056 -1.842008,3.7338 -3.335528,7.069328 -1.443736,3.335528 -2.638552,6.770624 -1.145032,3.435096 -2.190496,7.517385 0,0 0.945896,-0.796544 0.945896,-0.846328 2.290064,-2.041145 1.393952,-1.2446 2.837688,-2.4892 1.443736,-1.294384 2.4892,-2.24028 1.095248,-0.945896 1.344168,-1.145032 0.696976,-0.547624 1.2446,-0.74676 0.547624,-0.24892 0.796544,-0.24892 0.298704,0 0.298704,0.199136 0,0.547624 -1.344168,1.593088 z"
         style="font-style:normal;font-variant:normal;font-weight:normal;font-stretch:normal;font-size:49.784px;font-family:Bilbo;-inkscape-font-specification:'Bilbo, Normal';font-variant-ligatures:normal;font-variant-caps:normal;font-variant-numeric:normal;font-variant-east-asian:normal;fill:#1a1a1a;fill-opacity:1;stroke-width:0.666749"
         id="path1547" />
      <path
         d="m 90.329514,88.210489 q 0.298704,1.543304 0.298704,2.4892 0,1.194817 -0.796544,1.891793 -0.74676,0.696976 -1.891792,1.045464 -1.095248,0.348488 -2.190496,0.49784 -1.095248,0.09957 -1.74244,0.09957 -0.647192,0 -1.145032,0 -0.448056,-0.04978 -0.647192,-0.04978 -0.74676,1.891792 -1.194816,3.634232 -0.448056,1.74244 -0.448056,2.937258 0,1.99136 1.49352,1.99136 0.896112,0 1.842008,-0.79655 0.99568,-0.79654 1.891792,-1.842 0.896112,-1.045468 1.543304,-1.842012 0.647192,-0.796544 0.846328,-0.796544 0.348488,0 0.348488,0.398272 0,0.696976 -0.796544,1.792224 -0.796544,1.04546 -1.99136,2.09093 -1.145032,1.04546 -2.339848,1.74244 -1.145032,0.69697 -1.891792,0.69697 -0.597408,0 -1.393952,-0.2987 -0.74676,-0.24892 -1.344168,-0.9459 -0.547624,-0.74676 -0.547624,-2.09092 0,-0.54763 0.149352,-1.294388 0.49784,-2.4892 0.945896,-3.783584 0.49784,-1.294384 0.597408,-2.090928 -0.149352,-0.04978 -0.448056,-0.24892 -0.298704,-0.199136 -0.298704,-0.547624 0,-0.348488 0.298704,-0.448056 0.298704,-0.09957 0.547624,-0.09957 h 0.348488 q 0.398272,-0.846328 0.846328,-1.842009 0.49784,-0.99568 1.443736,-2.688336 0.846328,-1.593088 2.190496,-2.090928 1.393952,-0.547624 3.136392,-0.547624 1.692656,0 2.339848,3.036824 z m -1.792224,2.389632 q 0,-2.041144 -0.547624,-2.887472 -0.49784,-0.846328 -0.945896,-0.846328 -0.597408,0 -1.294384,0.74676 -0.647192,0.696976 -1.294384,1.692656 -0.597408,0.99568 -1.095248,1.99136 -0.49784,0.945897 -0.696976,1.493521 0.24892,0 0.796544,0.04978 0.547624,0.04978 1.194816,0.04978 1.891792,0 2.837688,-0.398272 0.99568,-0.448056 1.045464,-1.891793 z"
         style="font-style:normal;font-variant:normal;font-weight:normal;font-stretch:normal;font-size:49.784px;font-family:Bilbo;-inkscape-font-specification:'Bilbo, Normal';font-variant-ligatures:normal;font-variant-caps:normal;font-variant-numeric:normal;font-variant-east-asian:normal;fill:#1a1a1a;fill-opacity:1;stroke-width:0.666749"
         id="path1549" />
      <path
         d="m 109.34692,87.712649 q -0.0498,1.593088 -1.09525,3.23596 -1.04546,1.593089 -2.68834,3.136393 -1.64287,1.543304 -3.53466,2.937256 -1.89179,1.393952 -3.7338,2.588768 -1.842008,1.194814 -3.285744,2.090924 0.99568,-0.34848 2.638552,-0.64719 1.692656,-0.2987 3.534662,-0.49784 1.89179,-0.24892 3.4351,-0.24892 0.99568,0 1.94157,0.0996 0.99568,0.0996 1.64288,0.49784 0.64719,0.34849 0.64719,1.14503 0,0.69698 -0.34849,1.49352 -0.2987,0.79655 -0.69698,1.34417 -0.39827,0.54762 -0.64719,0.54762 -0.19913,0 -0.19913,-0.19913 0,-0.19914 0,-0.19914 0.39827,-0.49784 0.49784,-0.89611 0.14935,-0.39827 0.14935,-0.74676 0,-0.79654 -0.79655,-1.14503 -0.74676,-0.34849 -1.842,-0.34849 -1.64288,0 -3.28575,0.19914 -1.64287,0.19913 -3.335526,0.44805 -1.792224,0.29871 -3.833368,0.69698 -2.041144,0.34849 -3.48488,0.89611 -0.298704,0.0996 -0.398272,-0.39827 -0.09957,-0.44806 0,-0.9459 0.09957,-0.49784 0.74676,-0.89611 0.647192,-0.39827 1.443736,-0.69698 0.796544,-0.34848 1.344168,-0.54762 1.941576,-0.896112 4.082288,-2.290064 2.140714,-1.393952 4.032504,-3.036824 1.89179,-1.692656 3.08661,-3.48488 1.19481,-1.792225 1.29438,-3.534665 0.0498,-0.796544 -0.59741,-1.344168 -0.64719,-0.547624 -2.04114,-0.547624 -1.39395,0 -3.23596,0.547624 -1.792224,0.547624 -3.534664,1.344168 -1.74244,0.74676 -2.937256,1.49352 -0.09957,0.09957 -0.298704,0.09957 -0.348488,0 -0.24892,-0.448056 0,-0.398272 0.24892,-0.846328 0.24892,-0.49784 0.597408,-0.696976 0.298704,-0.149352 1.095248,-0.74676 0.846328,-0.597408 1.593088,-1.145032 0.796544,-0.597408 0.945896,-0.597408 0.298704,0 0.199136,0.348488 0,0.24892 -0.199136,0.448056 -0.199136,0.199136 -0.398272,0.398272 0.846328,-0.348488 2.140712,-0.74676 1.344164,-0.448056 2.887474,-0.796544 1.5433,-0.348488 2.88747,-0.348488 1.59309,0 2.63855,0.647192 1.04547,0.597408 0.9459,2.339848 z"
         style="font-style:normal;font-variant:normal;font-weight:normal;font-stretch:normal;font-size:49.784px;font-family:Bilbo;-inkscape-font-specification:'Bilbo, Normal';font-variant-ligatures:normal;font-variant-caps:normal;font-variant-numeric:normal;font-variant-east-asian:normal;fill:#1a1a1a;fill-opacity:1;stroke-width:0.666749"
         id="path1551" />
    </g>
    <g
       aria-label="Signer"
       id="text1242"
       style="font-style:normal;font-variant:normal;font-weight:normal;font-stretch:normal;font-size:49.784px;line-height:22.225px;font-family:Bilbo;-inkscape-font-specification:'Bilbo, Normal';font-variant-ligatures:normal;font-variant-caps:normal;font-variant-numeric:normal;font-variant-east-asian:normal;letter-spacing:0px;word-spacing:0px;fill:#1a1a1a;fill-opacity:1;stroke-width:0.666749">
      <path
         d="m 134.26841,103.69307 q 0.24892,2.09093 1.49352,3.48488 1.29438,1.34417 3.13639,2.24028 1.84201,0.89611 3.83337,1.59309 2.04114,0.69697 3.78358,1.44373 1.74244,0.74676 2.83769,1.79223 1.09525,0.99568 1.09525,2.63855 0,1.94158 -1.2446,3.88315 -1.2446,1.89179 -3.38531,3.48488 -2.14071,1.54331 -4.92862,2.4892 -2.73812,0.89611 -5.77494,0.89611 -2.33985,0 -3.53467,-0.54762 -1.14503,-0.54762 -1.5433,-1.34417 -0.39827,-0.84633 -0.39827,-1.64287 v -0.34849 q 0,-0.39827 0.24892,-1.04546 0.24892,-0.69698 1.09525,-0.69698 0.39827,0 0.44805,0.64719 0.0498,0.59741 0.44806,1.29439 0.79654,1.29438 2.04114,1.69265 1.2446,0.39828 3.13639,0.39828 1.64288,0 3.48488,-0.54763 1.8918,-0.54762 3.53467,-1.5433 1.64287,-0.99568 2.63855,-2.38963 1.04546,-1.39396 1.04546,-3.1364 0,-1.59308 -1.14503,-2.63855 -1.09525,-1.04546 -2.88747,-1.84201 -1.79222,-0.79654 -3.78358,-1.49352 -1.94158,-0.74676 -3.7338,-1.74244 -1.79223,-0.99568 -2.93726,-2.43941 -1.09525,-1.44374 -1.09525,-3.63423 0,-2.14072 1.19482,-4.08229 1.2446,-1.941578 3.33553,-3.435098 2.14071,-1.543304 4.77926,-2.389632 2.68834,-0.896112 5.57581,-0.896112 2.14071,0 3.18617,0.796544 1.04547,0.74676 1.39396,1.891792 0.39827,1.095248 0.39827,2.24028 0,0.24892 -0.14935,0.846328 -0.14936,0.597408 -0.49784,1.095248 -0.29871,0.44806 -0.74676,0.44806 -0.34849,0 -0.34849,-0.6472 v -0.995676 q 0,-2.290064 -1.39395,-3.036824 -1.34417,-0.796544 -3.38532,-0.796544 -1.34416,0 -3.28574,0.49784 -1.89179,0.448056 -3.7338,1.443736 -1.84201,0.945896 -3.08661,2.339848 -1.19481,1.39395 -1.19481,3.28574 0,0.0996 0,0.24892 0.0498,0.0996 0.0498,0.19914 z"
         style="font-style:normal;font-variant:normal;font-weight:normal;font-stretch:normal;font-size:49.784px;font-family:Bilbo;-inkscape-font-specification:'Bilbo, Normal';font-variant-ligatures:normal;font-variant-caps:normal;font-variant-numeric:normal;font-variant-east-asian:normal;fill:#1a1a1a;fill-opacity:1;stroke-width:0.666749"
         id="path1554" />
      <path
         d="m 164.18853,99.411646 q 0,0.547624 -0.44805,1.045464 -0.39828,0.49784 -0.89612,0.99568 -0.49784,0.49784 -0.79654,1.14503 -0.19914,0.49784 -0.49784,1.09525 -0.2987,0.59741 -0.89611,0.74676 -0.69698,0 -0.84633,-0.49784 -0.14935,-0.54762 -0.14935,-1.14503 0,-0.74676 0.74676,-1.54331 0.74676,-0.84632 1.74244,-1.393948 1.04546,-0.597408 1.74244,-0.597408 0.24892,0 0.2987,0.149352 z m -2.83769,8.513064 q -0.49784,0.9459 -1.64287,3.08661 -1.09525,2.14071 -2.33985,5.32689 -1.2446,3.13639 -2.19049,7.21868 -0.0498,0.14935 -0.0498,0.39827 0,0.59741 0.49784,0.59741 0.29871,0 0.9459,-0.34849 0.64719,-0.39827 1.34417,-0.74676 0.69697,-0.39827 1.04546,-0.39827 0.34849,0 0.39827,0.19913 0,0.29871 -0.74676,0.9459 -0.74676,0.59741 -1.79222,1.29438 -1.04546,0.64719 -2.04114,1.14503 -0.9459,0.44806 -1.44374,0.44806 -0.9459,0 -0.9459,-0.89611 0,-0.44806 0.19914,-1.04547 1.09525,-3.13639 1.79222,-5.12775 0.69698,-2.04114 1.09525,-3.18617 0.39827,-1.19482 0.54763,-1.79223 0.14935,-0.64719 0.14935,-1.04546 0,-0.24892 -0.0996,-0.34849 -0.0498,-0.0996 -0.0498,-0.2987 0,-0.19914 0.14935,-0.6472 1.04546,-3.03682 1.89179,-4.13207 0.84633,-1.09525 2.53898,-1.09525 0.69698,0 0.74676,0.44806 z"
         style="font-style:normal;font-variant:normal;font-weight:normal;font-stretch:normal;font-size:49.784px;font-family:Bilbo;-inkscape-font-specification:'Bilbo, Normal';font-variant-ligatures:normal;font-variant-caps:normal;font-variant-numeric:normal;font-variant-east-asian:normal;fill:#1a1a1a;fill-opacity:1;stroke-width:0.666749"
         id="path1556" />
      <path
         d="m 165.23396,123.55689 q -1.39395,0 -2.04114,-0.79655 -0.59741,-0.84633 -0.59741,-2.53898 0,-2.09093 0.69697,-4.23164 0.74676,-2.1905 1.94158,-3.98272 1.19482,-1.84201 2.63855,-2.93726 1.49352,-1.09525 2.98704,-1.09525 0.19914,0 0.34849,0.0498 0.19914,0 0.39827,0.0498 0,-0.69697 0.19914,-1.2446 0.24892,-0.54762 1.09525,-0.54762 0.89611,0 1.14503,0.64719 0.2987,0.59741 0.2987,1.64287 0,0.54763 -0.0498,1.19482 -0.0498,0.64719 -0.0498,1.2446 0.14936,0.0996 0.59741,0.44805 0.44806,0.29871 0.44806,0.69698 0,0.14935 -0.0498,0.24892 -0.0996,0.14935 -0.2987,0.19914 -0.19914,0 -0.39827,0 h -0.44806 q -0.0996,0.44805 -0.24892,1.29438 -0.14935,0.79654 -0.2987,1.59309 -0.0996,0.74676 -0.24892,1.04546 -1.2446,3.18618 -3.48488,5.12775 -2.24028,1.8918 -4.58013,1.8918 z m 0.69698,-1.44374 q 0.79654,0 1.842,-0.69698 1.09525,-0.74676 2.09093,-2.04114 1.04547,-1.34417 1.69266,-3.08661 0.69697,-1.79222 0.69697,-3.88315 -0.44805,-0.0996 -0.54762,-0.54762 -0.0996,-0.49784 -0.14935,-1.04547 0,-0.59741 -0.0996,-0.99568 -0.0996,-0.44805 -0.54762,-0.44805 -0.89612,0 -1.69266,0.69697 -0.79654,0.64719 -1.44374,1.69266 -0.64719,0.99568 -1.14503,1.99136 -0.44805,0.94589 -0.69697,1.5433 -0.39828,1.09525 -0.84633,2.63855 -0.39827,1.49352 -0.39827,2.63856 0,1.5433 1.2446,1.5433 z m -6.07365,22.1041 q -1.54331,0 -2.58877,-0.54763 -1.04546,-0.54762 -1.04546,-2.09093 0,-1.49352 0.79654,-3.58444 0.74676,-2.09093 1.84201,-4.23164 1.09525,-2.09093 2.19049,-3.78359 1.09525,-1.69265 1.69266,-2.38963 0.0996,-0.0996 0.34849,-0.24892 0.2987,-0.14935 0.64719,-0.24892 -0.64719,-0.39827 -1.34417,-0.69698 -0.64719,-0.2987 -0.64719,-0.74676 0,-0.54762 0.44806,-0.99568 0.49784,-0.49784 0.99568,-0.49784 h 0.19913 q 1.49352,0.54763 2.98704,1.8918 1.49352,1.34416 2.68834,3.0866 1.2446,1.79223 1.99136,3.68402 0.74676,1.94158 0.74676,3.63423 0,0.24892 0,0.49784 0,0.24892 -0.0498,0.49784 -0.19913,1.34417 -1.44373,2.53899 -1.2446,1.19481 -3.08661,2.14071 -1.79222,0.99568 -3.78358,1.5433 -1.94158,0.54763 -3.58445,0.54763 z m 0.0996,-1.2446 q 1.2446,0 2.83768,-0.49784 1.59309,-0.44806 3.08661,-1.19482 1.49352,-0.74676 2.4892,-1.59309 0.99568,-0.84633 1.04547,-1.59309 v -0.64719 q 0,-1.89179 -0.69698,-3.7338 -0.69698,-1.79222 -1.79222,-3.33553 -1.09525,-1.5433 -2.33985,-2.58876 -0.49784,0.79654 -1.64287,2.38963 -1.14504,1.59309 -2.38964,3.58445 -1.19481,1.99136 -2.04114,3.88315 -0.89611,1.89179 -0.89611,3.28574 0,2.04115 2.33985,2.04115 z"
         style="font-style:normal;font-variant:normal;font-weight:normal;font-stretch:normal;font-size:49.784px;font-family:Bilbo;-inkscape-font-specification:'Bilbo, Normal';font-variant-ligatures:normal;font-variant-caps:normal;font-variant-numeric:normal;font-variant-east-asian:normal;fill:#1a1a1a;fill-opacity:1;stroke-width:0.666749"
         id="path1558" />
      <path
         d="m 192.3662,108.2732 q -1.19481,1.94157 -2.43941,4.43077 -1.19482,2.4892 -2.24028,5.02819 -0.99568,2.53898 -1.64288,4.77926 -0.5974,2.24028 -0.5974,3.68402 0,0.89611 0.39827,0.89611 0.14935,0 0.54762,-0.24892 0.39827,-0.24892 0.79655,-0.49784 0.44805,-0.24892 0.5974,-0.24892 0.29871,0 0.29871,0.2987 0,0.39828 -0.54763,0.89612 -0.49784,0.49784 -1.2446,0.84632 -0.74676,0.34849 -1.49352,0.34849 -0.69697,0 -1.09524,-0.49784 -0.34849,-0.44805 -0.34849,-1.64287 0,-1.64287 0.54762,-3.68402 0.59741,-2.04114 1.39395,-4.18185 0.84633,-2.14071 1.69266,-4.08229 0.84633,-1.94158 1.34417,-3.28574 0.24892,-0.6472 0.24892,-0.99568 0,-0.24892 -0.14935,-0.24892 -0.24892,0 -1.09525,0.89611 -0.69698,0.79654 -1.94158,2.38963 -1.19481,1.5433 -2.58877,3.53466 -1.39395,1.94158 -2.68833,3.88316 -1.29439,1.89179 -2.14071,3.38531 -0.79655,1.49352 -0.84633,2.09093 0,0.19913 -0.44806,0.5974 -0.44805,0.39828 -1.04546,0.69698 -0.54763,0.2987 -0.9459,0.2987 -0.34849,0 -0.39827,-0.34848 0.0498,0.0498 0.44806,-0.9459 0.39827,-1.04546 0.94589,-2.68834 0.59741,-1.64287 1.19482,-3.38531 0.59741,-1.79222 1.09525,-3.23596 0.49784,-1.49352 0.69697,-2.14071 0.19914,-0.59741 0.19914,-0.89611 0,-0.24892 -0.0996,-0.34849 -0.0498,-0.0996 -0.0498,-0.2987 0,-0.19914 0.14935,-0.6472 0.74676,-2.04114 1.29438,-3.18617 0.54763,-1.14503 1.2446,-1.59309 0.69698,-0.44806 1.84201,-0.44806 0.69698,0 0.74676,0.44806 -0.34849,0.74676 -1.04546,2.14071 -0.6472,1.39395 -1.44374,3.13639 -0.74676,1.74244 -1.44374,3.48488 -0.64719,1.74244 -0.94589,3.18618 0.59741,-0.99568 1.64287,-2.58877 1.09525,-1.64287 2.43942,-3.48488 1.39395,-1.84201 2.83768,-3.43509 1.49352,-1.64288 2.93726,-2.68834 1.49352,-1.04546 2.73812,-1.04546 0.39827,0 0.69698,0.14935 0.2987,0.0996 0.2987,0.49784 0,0.44805 -0.34849,0.99568 z"
         style="font-style:normal;font-variant:normal;font-weight:normal;font-stretch:normal;font-size:49.784px;font-family:Bilbo;-inkscape-font-specification:'Bilbo, Normal';font-variant-ligatures:normal;font-variant-caps:normal;font-variant-numeric:normal;font-variant-east-asian:normal;fill:#1a1a1a;fill-opacity:1;stroke-width:0.666749"
         id="path1560" />
      <path
         d="m 203.76665,111.31002 q 0.29871,1.54331 0.29871,2.4892 0,1.19482 -0.79655,1.89179 -0.74676,0.69698 -1.89179,1.04547 -1.09525,0.34849 -2.19049,0.49784 -1.09525,0.0996 -1.74244,0.0996 -0.6472,0 -1.14504,0 -0.44805,-0.0498 -0.64719,-0.0498 -0.74676,1.89179 -1.19481,3.63423 -0.44806,1.74244 -0.44806,2.93726 0,1.99136 1.49352,1.99136 0.89611,0 1.84201,-0.79654 0.99568,-0.79655 1.89179,-1.84201 0.89611,-1.04547 1.5433,-1.84201 0.6472,-0.79654 0.84633,-0.79654 0.34849,0 0.34849,0.39827 0,0.69697 -0.79654,1.79222 -0.79655,1.04547 -1.99136,2.09093 -1.14504,1.04546 -2.33985,1.74244 -1.14503,0.69698 -1.89179,0.69698 -0.59741,0 -1.39396,-0.29871 -0.74676,-0.24892 -1.34416,-0.94589 -0.54763,-0.74676 -0.54763,-2.09093 0,-0.54763 0.14935,-1.29439 0.49784,-2.4892 0.9459,-3.78358 0.49784,-1.29438 0.59741,-2.09093 -0.14935,-0.0498 -0.44806,-0.24892 -0.2987,-0.19913 -0.2987,-0.54762 0,-0.34849 0.2987,-0.44806 0.29871,-0.0996 0.54763,-0.0996 h 0.34848 q 0.39828,-0.84632 0.84633,-1.842 0.49784,-0.99568 1.44374,-2.68834 0.84633,-1.59309 2.19049,-2.09093 1.39396,-0.54762 3.1364,-0.54762 1.69265,0 2.33984,3.03682 z m -1.79222,2.38963 q 0,-2.04114 -0.54762,-2.88747 -0.49784,-0.84633 -0.9459,-0.84633 -0.59741,0 -1.29438,0.74676 -0.6472,0.69698 -1.29439,1.69266 -0.59741,0.99568 -1.09525,1.99136 -0.49784,0.9459 -0.69697,1.49352 0.24892,0 0.79654,0.0498 0.54763,0.0498 1.19482,0.0498 1.89179,0 2.83769,-0.39827 0.99568,-0.44806 1.04546,-1.8918 z"
         style="font-style:normal;font-variant:normal;font-weight:normal;font-stretch:normal;font-size:49.784px;font-family:Bilbo;-inkscape-font-specification:'Bilbo, Normal';font-variant-ligatures:normal;font-variant-caps:normal;font-variant-numeric:normal;font-variant-east-asian:normal;fill:#1a1a1a;fill-opacity:1;stroke-width:0.666749"
         id="path1562" />
      <path
         d="m 217.95501,112.10657 q -0.34849,0.49784 -1.04546,1.04546 -0.6472,0.54762 -1.04547,0.54762 -0.2987,0 -0.2987,-0.2987 0,-0.24892 0.24892,-0.79654 0.24892,-0.59741 0.44805,-1.19482 0.24892,-0.64719 0.24892,-1.04546 0,-0.34849 -0.24892,-0.34849 -0.89611,0 -2.29006,1.49352 -1.34417,1.49352 -2.88747,3.93293 -1.54331,2.38964 -2.88747,5.17754 -1.34417,2.73812 -2.14072,5.2771 -0.2987,0.39828 -0.94589,0.79655 -0.64719,0.39827 -1.09525,0.39827 -0.2987,0 -0.44806,-0.24892 0,-1.29438 0.29871,-2.38963 0.34849,-1.14503 0.84633,-1.34417 0.69697,-2.58877 1.04546,-3.98272 0.34849,-1.44374 0.49784,-2.14071 0.14935,-0.69698 0.24892,-1.09525 0.0996,-0.44806 0.24892,-1.04546 0.0996,-0.24892 0.0996,-0.44806 0,-0.19914 0,-0.34849 0,-0.39827 -0.0996,-0.44805 -0.0996,-0.0996 -0.0996,-0.39828 0,-0.0996 0,-0.19913 0.0498,-0.14935 0.0996,-0.34849 0.79654,-3.08661 1.59309,-4.23164 0.79654,-1.19482 2.43941,-1.19482 0.59741,0 0.69698,0.39828 -0.24892,0.69697 -1.09525,2.63855 -0.79654,1.89179 -1.74244,4.43077 -0.89611,2.53899 -1.49352,5.12776 0.39827,-0.74676 1.2446,-2.1905 0.89611,-1.49352 2.04115,-3.23596 1.19481,-1.74244 2.53898,-3.28574 1.34417,-1.59309 2.58877,-2.58877 1.29438,-1.04547 2.33985,-1.04547 0.5974,0 0.89611,0.44806 0.2987,0.39827 0.2987,1.04546 0,0.6472 -0.2987,1.49352 -0.29871,0.84633 -0.84633,1.64288 z"
         style="font-style:normal;font-variant:normal;font-weight:normal;font-stretch:normal;font-size:49.784px;font-family:Bilbo;-inkscape-font-specification:'Bilbo, Normal';font-variant-ligatures:normal;font-variant-caps:normal;font-variant-numeric:normal;font-variant-east-asian:normal;fill:#1a1a1a;fill-opacity:1;stroke-width:0.666749"
         id="path1564" />
    </g>
  </g>
</svg>
